<?xml version="1.0" encoding="utf-8"?>
<!-- Generator: Adobe Illustrator 24.3.0, SVG Export Plug-In . SVG Version: 6.00 Build 0)  -->
<svg version="1.0" id="Layer_1" xmlns="http://www.w3.org/2000/svg" xmlns:xlink="http://www.w3.org/1999/xlink" x="0px" y="0px"
	 viewBox="0 0 183.4 224" style="enable-background:new 0 0 183.4 224;" xml:space="preserve">
<style type="text/css">
	.st0{fill:url(#SVGID_1_);}
	.st1{fill:url(#SVGID_2_);}
	.st2{fill:url(#SVGID_3_);}
	.st3{fill:url(#SVGID_4_);}
	.st4{fill:url(#SVGID_5_);}
	.st5{fill:url(#SVGID_6_);}
	.st6{fill:url(#SVGID_7_);}
	.st7{opacity:0.7;}
	.st8{fill:#FFFFFF;}
	.st9{fill:url(#SVGID_8_);}
	.st10{fill:url(#SVGID_9_);}
	.st11{fill:url(#SVGID_10_);}
	.st12{fill:url(#SVGID_11_);}
	.st13{fill:url(#SVGID_12_);}
	.st14{fill:#AEE2FF;}
	.st15{fill:#DCFDFF;}
	.st16{fill:#95FFFF;}
	.st17{opacity:0.2;}
	.st18{fill:#CFD1D2;}
	.st19{fill:url(#SVGID_13_);}
	.st20{fill:url(#SVGID_14_);}
	.st21{fill:url(#SVGID_15_);}
	.st22{fill:url(#SVGID_16_);}
	.st23{fill:#079D49;}
</style>
<g>
	<g>
		<linearGradient id="SVGID_1_" gradientUnits="userSpaceOnUse" x1="91.7" y1="3.5152" x2="91.7" y2="150.6768">
			<stop  offset="0" style="stop-color:#B3BCFF"/>
			<stop  offset="0.2387" style="stop-color:#AAB3F9"/>
			<stop  offset="0.635" style="stop-color:#9099E9"/>
			<stop  offset="1" style="stop-color:#737CD7"/>
		</linearGradient>
		<path class="st0" d="M183.4,91.7c0,2.2-0.1,4.3-0.2,6.5c-0.4,5.9-1.4,11.6-2.8,17.1c-1.4,5.4-3.3,10.5-5.6,15.4
			c-7,14.9-17.9,27.6-31.3,36.7c-14.7,10.1-32.5,15.9-51.7,15.9c-12.2,0-23.8-2.4-34.4-6.7c-7-2.7-13.4-6.3-19.4-10.6l0,0
			c-7.1-5.2-13.5-11.3-18.9-18.3c-0.3-0.4-0.6-0.8-1-1.3c-4.5-6-8.3-12.6-11.2-19.7c-1.1-2.6-2-5.2-2.9-7.9c-2.5-8.5-4-17.6-4-27.1
			C0,80.2,2.1,69.2,6,59c0-0.1,0.1-0.2,0.1-0.2c0.2-0.4,0.3-0.9,0.5-1.3c1.2-2.9,2.5-5.8,4-8.5c0.2-0.3,0.3-0.7,0.5-1
			c0.7-1.3,1.4-2.6,2.2-3.8c0.2-0.4,0.5-0.8,0.7-1.1c0.4-0.6,0.7-1.1,1.1-1.7l0,0c0.4-0.5,0.7-1.1,1.1-1.6c0.4-0.5,0.7-1.1,1.1-1.6
			c0.1-0.1,0.2-0.3,0.3-0.4c0.3-0.4,0.6-0.8,0.8-1.1c0.2-0.2,0.3-0.4,0.5-0.6c0.7-0.9,1.3-1.7,2-2.5l0,0c0.4-0.5,0.8-1,1.2-1.5
			C39,12.4,63.9,0,91.7,0c0.9,0,1.7,0,2.6,0c1,0,1.9,0.1,2.9,0.1c0.5,0,1,0.1,1.4,0.1c2.4,0.2,4.8,0.5,7.1,0.8
			c0.2,0,0.3,0.1,0.5,0.1c3.3,0.5,6.6,1.2,9.8,2.1c0.2,0.1,0.5,0.1,0.7,0.2c0.4,0.1,0.8,0.2,1.2,0.4
			C155.8,15.2,183.4,50.2,183.4,91.7z"/>
	</g>
	<g>
		
			<radialGradient id="SVGID_2_" cx="-125.3905" cy="281.0744" r="118.3632" fx="-125.8486" fy="162.7121" gradientTransform="matrix(0.6528 0 0 0.6528 170.5097 -109.4257)" gradientUnits="userSpaceOnUse">
			<stop  offset="0" style="stop-color:#CCD2FF"/>
			<stop  offset="0.2101" style="stop-color:#B9C2FC;stop-opacity:0.7833"/>
			<stop  offset="0.6326" style="stop-color:#8997F5;stop-opacity:0.3474"/>
			<stop  offset="0.9694" style="stop-color:#5E72EE;stop-opacity:0"/>
		</radialGradient>
		<path class="st1" d="M183.4,91.7c0,2.2-0.1,4.3-0.2,6.5c-0.4,5.9-1.4,11.6-2.8,17.1c-1.4,5.4-3.3,10.5-5.6,15.4
			c-7,14.9-17.9,27.6-31.3,36.7c-14.7,10.1-32.5,15.9-51.7,15.9c-12.2,0-23.8-2.4-34.4-6.7c-7-2.7-13.4-6.3-19.4-10.6l0,0
			c-7.1-5.2-13.5-11.3-18.9-18.3c-0.3-0.4-0.6-0.8-1-1.3c-4.5-6-8.3-12.6-11.2-19.7c-1.1-2.6-2-5.2-2.9-7.9c-2.5-8.5-4-17.6-4-27.1
			C0,80.2,2.1,69.2,6,59c0-0.1,0.1-0.2,0.1-0.2c0.2-0.4,0.3-0.9,0.5-1.3c1.2-2.9,2.5-5.8,4-8.5c0.2-0.3,0.3-0.7,0.5-1
			c0.7-1.3,1.4-2.6,2.2-3.8c0.2-0.4,0.5-0.8,0.7-1.1c0.4-0.6,0.7-1.1,1.1-1.7l0,0c0.4-0.5,0.7-1.1,1.1-1.6c0.4-0.5,0.7-1.1,1.1-1.6
			c0.1-0.1,0.2-0.3,0.3-0.4c0.3-0.4,0.6-0.8,0.8-1.1c0.2-0.2,0.3-0.4,0.5-0.6c0.7-0.9,1.3-1.7,2-2.5l0,0c0.4-0.5,0.8-1,1.2-1.5
			C39,12.4,63.9,0,91.7,0c0.9,0,1.7,0,2.6,0c1,0,1.9,0.1,2.9,0.1c0.5,0,1,0.1,1.4,0.1c2.4,0.2,4.8,0.5,7.1,0.8
			c0.2,0,0.3,0.1,0.5,0.1c3.3,0.5,6.6,1.2,9.8,2.1c0.2,0.1,0.5,0.1,0.7,0.2c0.4,0.1,0.8,0.2,1.2,0.4
			C155.8,15.2,183.4,50.2,183.4,91.7z"/>
	</g>
	<g>
		
			<radialGradient id="SVGID_3_" cx="152.3582" cy="-907.1589" r="115.4749" fx="143.1989" fy="-1022.27" gradientTransform="matrix(0.3367 -0.5593 0.5593 0.3367 532.1352 476.4698)" gradientUnits="userSpaceOnUse">
			<stop  offset="0" style="stop-color:#CCD2FF"/>
			<stop  offset="0.2167" style="stop-color:#B9C2FC;stop-opacity:0.7833"/>
			<stop  offset="0.6526" style="stop-color:#8997F5;stop-opacity:0.3474"/>
			<stop  offset="1" style="stop-color:#5E72EE;stop-opacity:0"/>
		</radialGradient>
		<path class="st2" d="M139,13.1c1.9,1.1,3.7,2.3,5.4,3.5c4.8,3.4,9.2,7.2,13.2,11.3c3.9,4,7.3,8.3,10.3,12.8
			c9.1,13.7,14.4,29.5,15.3,45.8c1,17.8-3.1,36.1-13,52.5c-6.3,10.4-14.3,19.2-23.5,26c-5.9,4.5-12.3,8.1-19.1,11l0,0
			c-8.1,3.4-16.7,5.7-25.4,6.7c-0.5,0.1-1,0.1-1.6,0.2c-7.5,0.8-15.1,0.6-22.6-0.5c-2.8-0.4-5.5-1-8.3-1.6
			c-8.7-2.1-17.3-5.6-25.4-10.5c-9.8-5.9-18.2-13.4-24.9-22c-0.1-0.1-0.1-0.1-0.1-0.2c-0.3-0.4-0.6-0.7-0.9-1.1
			c-1.9-2.6-3.7-5.2-5.3-7.8c-0.2-0.3-0.4-0.6-0.6-1c-0.7-1.3-1.5-2.6-2.2-3.9c-0.2-0.4-0.4-0.8-0.6-1.2c-0.3-0.6-0.6-1.2-0.9-1.8
			l0,0c-0.3-0.6-0.6-1.2-0.8-1.8c-0.3-0.6-0.5-1.2-0.8-1.8c-0.1-0.2-0.1-0.3-0.2-0.5c-0.2-0.4-0.4-0.9-0.5-1.3
			c-0.1-0.2-0.2-0.5-0.3-0.7c-0.4-1-0.8-2-1.1-3c0,0,0,0,0-0.1c-0.2-0.6-0.4-1.2-0.6-1.8c-8.1-24.5-5.8-52.2,8.5-76
			c0.4-0.7,0.9-1.5,1.4-2.2c0.5-0.8,1.1-1.6,1.6-2.4c0.3-0.4,0.5-0.8,0.8-1.2c1.4-2,2.9-3.9,4.4-5.7c0.1-0.1,0.2-0.3,0.3-0.4
			c2.2-2.6,4.5-5,6.9-7.3c0.2-0.2,0.3-0.3,0.5-0.5c0.3-0.3,0.6-0.6,0.9-0.9C59.2-2.7,103.4-8.3,139,13.1z"/>
	</g>
	<g>
		
			<radialGradient id="SVGID_4_" cx="1384.9545" cy="1126.5171" r="115.4749" fx="1362.5278" fy="1013.2409" gradientTransform="matrix(-0.3367 -0.5593 -0.5593 0.3367 1207.0416 476.4698)" gradientUnits="userSpaceOnUse">
			<stop  offset="0" style="stop-color:#CCD2FF"/>
			<stop  offset="0.5246" style="stop-color:#909EF6;stop-opacity:0.4754"/>
			<stop  offset="1" style="stop-color:#5E72EE;stop-opacity:0"/>
		</radialGradient>
		<path class="st3" d="M44.4,13.1c-1.9,1.1-3.7,2.3-5.4,3.5c-4.8,3.4-9.2,7.2-13.2,11.3c-3.9,4-7.3,8.3-10.3,12.8
			C6.3,54.4,1.1,70.2,0.2,86.5c-1,17.8,3.1,36.1,13,52.5c6.3,10.4,14.3,19.2,23.5,26c5.9,4.5,12.3,8.1,19.1,11l0,0
			c8.1,3.4,16.7,5.7,25.4,6.7c0.5,0.1,1,0.1,1.6,0.2c7.5,0.8,15.1,0.6,22.6-0.5c2.8-0.4,5.5-1,8.3-1.6c8.7-2.1,17.3-5.6,25.4-10.5
			c9.8-5.9,18.2-13.4,24.9-22c0.1-0.1,0.1-0.1,0.1-0.2c0.3-0.4,0.6-0.7,0.9-1.1c1.9-2.5,3.7-5.1,5.3-7.8c0.2-0.3,0.4-0.6,0.6-1
			c0.7-1.3,1.5-2.6,2.2-3.9c0.2-0.4,0.4-0.8,0.6-1.2c0.3-0.6,0.6-1.2,0.9-1.8l0,0c0.3-0.6,0.6-1.2,0.8-1.8c0.3-0.6,0.5-1.2,0.8-1.8
			c0.1-0.2,0.1-0.3,0.2-0.5c0.2-0.4,0.4-0.9,0.5-1.3c0.1-0.2,0.2-0.5,0.3-0.7c0.4-1,0.8-2,1.1-3c0,0,0,0,0-0.1
			c0.2-0.6,0.4-1.2,0.6-1.8c8.1-24.5,5.8-52.2-8.5-76c-0.4-0.7-0.9-1.5-1.4-2.2c-0.5-0.8-1.1-1.6-1.6-2.4c-0.3-0.4-0.5-0.8-0.8-1.2
			c-1.4-2-2.9-3.9-4.4-5.7c-0.1-0.1-0.2-0.3-0.3-0.4c-2.2-2.6-4.5-5-6.9-7.3c-0.2-0.2-0.3-0.3-0.5-0.5c-0.3-0.3-0.6-0.6-0.9-0.9
			C124.2-2.7,80-8.3,44.4,13.1z"/>
	</g>
	<g>
		<linearGradient id="SVGID_5_" gradientUnits="userSpaceOnUse" x1="128.3" y1="98.2" x2="128.3" y2="98.2">
			<stop  offset="0" style="stop-color:#000000"/>
			<stop  offset="0.1944" style="stop-color:#000C14"/>
			<stop  offset="1" style="stop-color:#003A65"/>
		</linearGradient>
		<path class="st4" d="M128.3,98.2L128.3,98.2L128.3,98.2L128.3,98.2L128.3,98.2z"/>
		
			<linearGradient id="SVGID_6_" gradientUnits="userSpaceOnUse" x1="97.0508" y1="45.96" x2="97.0508" y2="132.0068" gradientTransform="matrix(1 0 0 -1 0 224)">
			<stop  offset="0" style="stop-color:#24284D"/>
			<stop  offset="0.8603" style="stop-color:#576599"/>
			<stop  offset="1" style="stop-color:#576599"/>
		</linearGradient>
		<path class="st5" d="M180.5,115l-0.4,0.4l-0.1,0.1c-0.1,0.1-0.1,0.2-0.2,0.3l-0.1,0.1l-0.1,0.1c-0.3,0.3-0.6,0.7-0.8,1
			c-0.2,0.4-0.4,0.9-0.6,1.3c-0.2,0.5-0.6,0.8-0.7,1.3c-0.4,0.5-0.7,1-0.9,1.5c-0.2,0.3-0.3,0.7-0.5,1c-0.1,0.2-0.2,0.4-0.3,0.6
			s-0.2,0.4-0.3,0.5c-1.1-1.1-2.3-2.1-3.1-2.7s-2.1-1.7-3.5-3c-0.2-2.2-0.5-4.5-0.9-6.7c-0.1-0.3-0.1-0.6-0.2-0.9
			c0-0.2-0.1-0.3-0.1-0.5c-0.1-0.3-0.1-0.5-0.2-0.8v-0.1c-0.1-0.3-0.1-0.6-0.2-0.9c-0.1-0.3-0.1-0.6-0.2-0.8
			c-0.1-0.3-0.1-0.5-0.2-0.8l0,0c-0.3-1.1-0.6-2-1-2.8c0,0,1.2-1.3,1.1-2.4c-0.1-1.1-1.7-1.8-2.6-3.2c-0.9-1.4-2.9-3-3.5-2.4
			s-1.3,1.4-2.1,1.8s-1.1,0.7-1.4,1.3c-0.3,0.6-0.8,1-1.1,1.5s-0.3,2.6-0.3,2.6c0.9,1.8,2,3.6,3.2,4.2c1.2,0.7,2,0.5,2,0.5
			s0.1,1.6,0.3,3.8c-1.4-1.3-2.6-2.4-3.3-3.2c-2.8-2.8-6.5-6.5-7.2-7.7c-0.6-1.2-1.2-3.8-3.4-6.1c-2.2-2.3-2.9-1.6-5-1.4
			c-1.2,0.1-1.6,0.4-2.1,0.8c-0.4-0.7-0.9-1.4-1.4-2c-0.1-0.1-0.2-0.2-0.3-0.4c0,0,0,0,0-0.1c1.3-1.7,0.8-4.3,0-4.8
			c-0.8-0.6-3.8-2.8-5-3.1c-0.1,0-0.2,0-0.3,0c-1.4-1.9-3-3.7-3.7-2.7c-0.5,0.8,0.6,2.4,1,3.1v0.1c-0.6,0.2-1.1,0.5-1.5,0.8
			c-0.9,0.7,0,1.8,0,1.8s-3.1,0-4.7,0.7c-1.7,0.7-2.7,3.9-3.1,4.7c-0.4,0.8-3.6,4.5-6.3,8.6c-2.1,3.1-4.9,8.3-6.7,12.3
			c-4.2-4.1-8.7-8.8-10.5-10.6c-2.8-2.8,0.2-5.3-1.2-7.5c-1.4-2.1-3-2-2.1-0.7c0.8,1.3,1.1,2.6,0,3.2s-2.4-0.9-3.3-2
			s-2.8-0.9-2.8-0.9c0.6-0.8,0.8-2.5,0.6-3.9C89.1,89,88,88.1,88,89.4s-1.7,2.4-1.7,2.4c0.2-0.9-0.2-2.8-0.6-4
			c-0.3-1.3-0.9-2.4-1.3-1.9c-0.5,0.5-0.3,2.5,0,4.6c0.2,2-2.1,3.6-2.3,3.7c0.8-0.8,1-2.2,1.2-3.9c0.2-1.7-0.1-3.1-0.7-2.8
			c-0.6,0.2-0.8,1.5-1.1,3.6c-0.2,2-1.2,1.8-2.6,3.9s-4.5,3.6-6,5.4c-1.5,1.9-2,4.1-2.1,5.8c-0.1,1.7-0.6,2.4-2.4,5.5
			c-1.7,3.2-5.4,10.7-6.5,15.9s-2.4,7.6-1.7,9.5c0.5,1.6,2.6,5,5.7,10.4c-0.4,0.3-0.8,0.7-1.2,1c-0.6,0.5-1,1.3-1.6,1.7
			c-0.4,0.3-0.7,0.3-1,0.4c-0.5-1.6-0.9-3.2-1.4-5c-0.7-2.5-2.1-5.2-5-6.7c-0.2-1.6-0.4-2.8-0.5-3.4c-0.2-1.7-0.2-7.8-0.3-10.7
			c-0.1-2.9-0.6-3.2,0.7-4.3c1.4-1,2.9-3.1,3.8-4.3c0.9-1.1,2.4-2.8,3.5-4.3c1.1-1.5,1.7-2.4,0-2.4s-3,2.1-4.3,3.3
			c-1.2,1.3-1.7,0.9-1.8-0.7c-0.1-1.7,0.5-5.7,0.7-7.5s0.6-5-0.5-5.2s-1.2,0.7-1.6,3.5c-0.3,2.8-0.9,3.7-1.4,4.2
			c-0.4,0.4-1.5-0.1-2.4,0s-1.2,0.1-2.3,0c-1-0.1-1.6,0.8-2.8,1.4c-1.2,0.5-0.9,0.1-1.2,1.1s-0.3,4,0,6.5s1.2,2.4,1.5,3.4
			c0.2,1,0.3,7.4,0.4,11.5c0,1.8,0,4.4-0.1,7.1c-0.1,0-0.2,0-0.2,0c-0.3,0.1-0.7,0.1-1,0.2c-0.2-0.6-0.4-1.2-0.7-2
			c-1.2-3.5-5.2-10.6-7.8-14.4c-0.1-0.1-0.1-0.2-0.2-0.2c1.7-4.1,3.9-10.1,4.3-11.8c0.5-2.2,0.9-3.2,2.7-5c1.7-1.9,3.8-3.2,3.9-4.6
			c0.1-1.4,0-3.3,0.9-5.1c0.9-1.8,2.7-2.8,2.7-3.7c0-0.8-2.5-1.1-3.4,0s-3,4.5-3.2,5.7c0,0-2.5-4.3-3.3-5.4
			c-0.8-1.2-2.2-2.1-3.2-1.8c-0.9,0.4-1.1,1.8-1.7,2.5c-0.6,0.7-1.9,0.6-2.7,1.7s-1.3,1.1-2.1,2s-0.9,3.4-0.2,5.1
			c0.7,1.7,2.5,4.3,2.2,5.9c-0.2,1.2-1.5,3-3.2,6c-0.5-1.2-1.4-3-2.6-3.6c-1.6-0.7-4.6-0.7-4.6-0.7s0.9-1,0-1.6
			c-1.1-0.7-3.1-1.4-4.4-1.2c-1.2,0.2-4.1,2.3-4.9,2.8c-0.8,0.5-1.3,2.8,0,4.5s3.7,3.5,6.2,3.4s5.4-0.4,5.4-0.4s0.8,1.2,1.9,2.8
			c-0.1,0.1-0.1,0.2-0.2,0.4c-0.2,0.3-0.3,0.7-0.5,1s-0.3,0.7-0.5,1c-0.3,0.6-0.6,1.2-0.9,1.7c-0.1,0.1-0.1,0.2-0.2,0.3
			c-0.5,0.9-1,1.9-1.5,2.8c0,0.1-0.1,0.1-0.1,0.2c-0.5,0.9-1,1.8-1.4,2.5c0,0,0,0.1-0.1,0.1c-0.1,0.2-0.2,0.4-0.4,0.6
			c-0.7,1.3-1.3,2.3-1.6,2.7c-0.9,1.6-2.1,2.5-2.1,5c0,0.5,0,1.4-0.1,2.6c0,0.1,0,0.2,0,0.3s0,0.3,0,0.4c0,0.2,0,0.5,0,0.7
			c-0.1,1.5-0.1,3.1-0.2,4.9l0,0c16.7,22.4,43.3,36.9,73.4,36.9c42.2,0,78.1-27.2,88.5-66.7c0.1-0.3,0.2-0.7,0.3-1.1
			C180.4,115.4,180.5,115,180.5,115z M32.4,140.1c-1.6,1.2-3,4.9-3.1,5.4l1.2-6c0,0,1.7-4.7,3.3-8.9c1,3.1,1.8,6.5,2.3,8.8
			C34.3,139.5,33.1,139.5,32.4,140.1z M70,165.2c-0.1-0.4-0.2-0.8-0.4-1.1c0.3-0.4,0.5-0.8,0.8-1.3c0.1-0.2,0.2-0.3,0.3-0.5
			C70.4,163.5,70.2,164.5,70,165.2z M77.8,115.1c0.1,0.6-0.1,1-0.2,1.6c-0.3,1.1-0.2,1.8,0.1,2.8c0.3,1.1,0.1,1.9-0.3,2.9
			c-0.4,0.9-0.5,1.9-0.8,2.9c-0.3,0.9-0.7,1.9-1.1,2.8c-0.3-0.3-0.6-0.6-0.8-1c-0.8-1.2-2.3-2.5-3.1-2.5c0.9-4.5,2.2-10.3,2.9-13.1
			c0.9-4.1,0.6-4.4,2.1-5.3s6-5.2,6-5.2s0.5,1.1,1.2,2.5c0.1,0.2,0.3,0.5,0.5,0.7c-0.3,0.5-0.4,1-0.6,1.4c-0.3,0.8-0.6,1.6-0.9,2.4
			c-0.1-0.1-0.3-0.2-0.4-0.2c-0.9-0.2-0.9,0.6-1,1.8c0,0.5-0.1,1.2-0.1,1.8c-0.3,0.7-0.6,1.4-1,2.1c-0.8-0.4-2-0.5-2.4,0.5
			C77.6,114.3,77.7,114.7,77.8,115.1z M84.2,129.1c-0.1,1.5-0.3,5.5-1.6,9.3c-1.2,3.5-2.4,7.9-3.4,10.6c-0.2-1.9-0.4-3.9-0.7-5.8
			c0.9-2.1,1.4-4.4,1.9-6.6c0.7-2.5,1.3-5.1,2-7.6c0.3-1.1,0.6-2.2,1-3.3v-0.1C84.1,127,84.3,128,84.2,129.1z M98.8,126.4
			c-2.3-0.1-4.9,0.8-7.1,2c-0.2-1.7-0.9-4.7-1.7-6.1c0,0-0.1-5.2,0-6.2c0-0.1,0-0.1,0-0.2v-0.1c0.1-0.3,0.1-0.5,0-0.7
			c0-0.5-0.1-0.7-0.5-0.7c-0.3,0-0.5,0.1-0.7,0.2c-0.8-0.2-0.3-0.9-0.4-1.5c-0.1-0.8-0.9-0.5-1.4-0.7c0.3-0.9,0.6-1.6-0.2-1.7
			c0,0,0.7-2.3-0.2-2.7c-0.9-0.4-1.1-0.4-1.8,1.4c-0.2,0.4-0.3,0.8-0.5,1.2c-0.2,0-0.3-0.1-0.2-0.6c0.3-1.4,1-2.8,1.3-4.3
			c1.1,1,2.5,1.9,3.6,2.1c2,0.2,2.9,0.1,4.6,1.3c1.7,1.2,6.4,7.5,10.7,12.3c0.5,0.5,0.9,1.1,1.4,1.6c0,0.1,0,0.2,0,0.3
			c0.1,1.1,0.6,3,1.3,5.4C104.8,126.8,102.3,126.6,98.8,126.4z M139,131.7c-0.7,2.4-1.4,4.7-2,6.3c-0.9,2.5-2.2,4.7-2.8,7.2
			c-0.5,2-0.4,4.6-0.9,6.5c-2.9-4.6-7.4-11.7-9.4-14.4c-0.1-0.2-0.2-0.3-0.4-0.5c0.2-4.7,0.2-8.3,0.2-8.8c0-0.6-1.6-2.6-3.7-4.8
			c0.1-0.2,0.3-0.4,0.5-0.5c0.5-0.7,1.1-1.8,0.7-2.9c-0.9-0.6-1.7,0.7-2.1,1.5c-0.3,0.1-0.4,0.3-0.6,0.5c-0.2-0.2-0.4-0.4-0.6-0.6
			c0.3-0.8,0.7-1.6,0.9-2.7c0.7-0.8,2.6-2.9,1.1-4.3c-0.7-0.6-1,0.8-1.6,1.1c-0.2,0.5-0.5,1-0.9,1.4c0.2-0.9,0.5-1.8,0.7-2.8
			c0.1-0.2,0.2-0.5,0.2-0.7c1-3.9,2.3-8,3.4-9.8c2-3.5,5.4-8.7,5.4-8.7s0.1,0,0.4,0c-0.5,0.4-0.7,1.1-0.3,1.9
			c0.4,0.8,1.1,1.5,1.6,2.4c0-0.1-0.1-0.2-0.2-0.3l0,0c0,0,0-0.1-0.1-0.1c0,0-0.1-0.1-0.1-0.2v-0.1c1.1,1.7,2.3,3.3,3.7,4.8
			c0.6,0.6,1.2,1.3,1.8,1.8c0.8,0.6,1.8,1,2.5,1.7c0.6,0.6,0.9,1.5,1.2,2.2c0.5,1,1,2,1.5,3.1c0.5,1,1,1.9,1.4,2.9v0.1
			c0.8,2.3,1.2,3.3,1.1,4.7c-0.1,1-0.2,3.2-0.7,5.7c-0.9,1.5-1.5,3.1-1.7,4.2C139,130.3,139,131,139,131.7z M140.1,158.5
			c0.8-1.9,1.5-3.5,1.9-4.2c0.2-0.2,0.3-0.4,0.4-0.6C142.1,156.3,140.9,158,140.1,158.5z M155.5,119.9c-0.9-1-1.8-2.1-2.7-3.1
			c-2.2-2.6-4.2-5.5-5.9-8.5c0-0.2,0-0.3,0-0.5c0.1-0.9,0.2-1.5-0.3-1.5c-0.3,0-0.5,0.1-0.6,0.2c-0.2-0.5-0.5-0.9-0.7-1.4
			c1.5,0.1,1.9,1.3,4,3.6c2.3,2.6,9.9,12.5,10.1,12.8C158.2,120.8,156.9,120.2,155.5,119.9z M170.1,138.8c0-1.6,0-3.4,0-5.2
			c0.3,0.3,0.5,0.5,0.6,0.6C170.7,134.2,170.5,136.3,170.1,138.8z"/>
		
			<linearGradient id="SVGID_7_" gradientUnits="userSpaceOnUse" x1="10.8" y1="45.96" x2="10.8" y2="132.0068" gradientTransform="matrix(1 0 0 -1 0 224)">
			<stop  offset="0" style="stop-color:#24284D"/>
			<stop  offset="0.8603" style="stop-color:#576599"/>
			<stop  offset="1" style="stop-color:#576599"/>
		</linearGradient>
		<path class="st6" d="M17,119.1c0,0-1.1-1.2-2.7-2.3c-1.5-1-1.2-1.7-3.3-1.9c-2.1-0.1-2.8-0.8-4.9,1.3c-0.1,0.1-0.3,0.3-0.4,0.4
			s-0.2,0.2-0.3,0.4c-0.1,0.1-0.2,0.2-0.2,0.3c-0.1,0.1-0.1,0.2-0.2,0.3c-0.1,0.1-0.2,0.2-0.2,0.3c-0.2,0.3-0.6,0.9-0.8,1.2
			c0,0.1,0.1,0.2,0.1,0.3c0.7,2.1,3.6,11,9.2,20c0,0-2.8-9.4-3.1-10.3c-0.2-0.5-0.2-0.9-0.2-0.9c1.5-1.5,3.3-1.8,4.2-2.2
			c0.8-0.4,2-1.9,2.5-3.2c0.3-0.7,0.7-1.6,0.9-2.3l0,0c0-0.1,0-0.2,0-0.3C17.6,119.5,17.4,119.2,17,119.1z"/>
		<g class="st7">
			<path class="st8" d="M88.3,113.9c0-0.3,0.1-0.5,0.1-0.8c-0.1-0.7-0.6-0.6-1.1-0.6c-0.1,0.3-0.2,0.6-0.3,0.9
				C87.5,113.6,88.1,113.4,88.3,113.9z"/>
			<path class="st8" d="M87,110.8c-0.1,0.5-0.2,0.9-0.2,0.9c0.2,0,0.3,0.1,0.4,0.2C87.4,111.3,87.4,110.9,87,110.8z"/>
			<path class="st8" d="M82.6,139.4c1.3-3.8,1.5-7.8,1.6-9.3c0-0.3,0-0.6,0-0.9c-0.1,1.5-0.3,5.5-1.6,9.2c-1.2,3.5-2.4,7.9-3.4,10.6
				c-0.2-1.7-0.5-4.1-0.7-5.8c0,0.1,0,0.9,0,1c0.3,1.9,0.5,3.9,0.7,5.8C80.2,147.3,81.4,142.9,82.6,139.4z"/>
			<path class="st8" d="M84.8,110.4c0.7-1.8,0.9-1.8,1.8-1.4c0.2,0.1,0.4,0.4,0.4,0.6c0.1-0.7,0.1-1.4-0.4-1.6
				c-0.9-0.4-1.1-0.4-1.8,1.4c-0.2,0.4-0.3,0.8-0.5,1.2h-0.1c0,0.1-0.1,0.3-0.1,0.4c-0.1,0.5,0,0.6,0.2,0.6
				C84.5,111.2,84.6,110.8,84.8,110.4z"/>
			<path class="st8" d="M74.7,128.1c0.2,0.4,0.5,0.7,0.8,1c0.4-0.9,0.8-1.9,1.1-2.8c0.3-1,0.4-2,0.8-2.9c0.3-0.8,0.5-1.5,0.4-2.3
				c-0.1,0.4-0.2,0.9-0.4,1.3c-0.4,0.9-0.5,1.9-0.8,2.9c-0.3,0.9-0.7,1.9-1.1,2.8c-0.3-0.3-0.6-0.6-0.8-1c-0.7-1.1-2.1-2.3-2.9-2.5
				c-0.1,0.3-0.1,0.6-0.2,1C72.4,125.6,73.9,126.9,74.7,128.1z"/>
			<path class="st8" d="M121.2,119.8c-0.9-0.6-1.7,0.7-2.1,1.5c-0.3,0.1-0.4,0.3-0.6,0.5l-0.3-0.3l0,0c0.2,0.4,0.3,0.8,0.4,1.2
				c0.1-0.2,0.3-0.3,0.5-0.4c0.4-0.8,1.2-2.1,2.1-1.5c0,0.1,0.1,0.2,0.1,0.3C121.4,120.7,121.4,120.2,121.2,119.8z"/>
			<path class="st8" d="M80.3,114.5c0.4-0.7,0.7-1.4,1-2.1c0-0.6,0.1-1.3,0.1-1.8c0.1-1.2,0.1-2,1-1.8c0.1,0,0.3,0.1,0.4,0.2
				c0.3-0.8,0.6-1.6,0.9-2.4c0.2-0.4,0.3-0.9,0.6-1.4c-0.1-0.1-0.2-0.2-0.3-0.4c-0.1,0.3-0.2,0.5-0.3,0.8c-0.3,0.8-0.6,1.6-0.9,2.4
				c-0.1-0.1-0.3-0.2-0.4-0.2c-0.9-0.2-0.9,0.6-1,1.8c0,0.5-0.1,1.2-0.1,1.8c-0.3,0.7-0.6,1.4-1,2.1c-0.8-0.4-2-0.5-2.4,0.5
				c-0.3,0.3-0.2,0.7-0.1,1.1c0,0,0,0,0,0.1c0-0.1,0.1-0.1,0.1-0.2C78.3,114,79.5,114.1,80.3,114.5z"/>
			<path class="st8" d="M84.4,91.5c0-0.1,0-0.2,0-0.3c-0.2,1-1.7,2.4-2.3,3v1C82.3,95.1,84.6,93.5,84.4,91.5z"/>
			<path class="st8" d="M32.4,141.1c0.7-0.6,1.9-0.6,3.7-0.7c-0.1-0.3-0.1-0.6-0.2-1c-1.7,0.1-2.8,0.1-3.5,0.7
				c-1.1,0.8-2.1,2.8-2.6,4.1l-0.5,2.3C29.4,146,30.8,142.3,32.4,141.1z"/>
			<path class="st8" d="M18.4,137.5c0,0.5,0,1.4-0.1,2.6c0,0.1,0,0.2,0,0.3s0,0.3,0,0.4c0,0.1,0,0.2,0,0.3c0.1-1.2,0.1-2.1,0.1-2.6
				c0-2.5,1.2-3.4,2.1-5c0.3-0.4,0.9-1.4,1.6-2.7c0.2-0.2,0.3-0.4,0.4-0.6c0.1,0,0.1-0.1,0.1-0.1c0.4-0.7,0.9-1.6,1.4-2.5
				c0-0.1,0.1-0.1,0.1-0.2c0.5-0.9,1-1.9,1.5-2.8c0.1-0.1,0.1-0.2,0.2-0.3c0.3-0.5,0.6-1.1,0.9-1.7c0.2-0.3,0.3-0.7,0.5-1
				s0.3-0.7,0.5-1c0.1-0.2,0.4-0.9,0.5-1c-0.1-0.1-0.2-0.3-0.3-0.4c-0.1,0.3-0.5,1.2-0.7,1.4c-0.2,0.3-0.3,0.7-0.5,1
				c-0.3,0.6-0.6,1.2-0.9,1.7c-0.1,0.1-0.1,0.2-0.2,0.3c-0.5,0.9-1,1.9-1.5,2.8c0,0.1-0.1,0.1-0.1,0.2c-0.5,0.9-1,1.8-1.4,2.5
				c0,0,0,0.1-0.1,0.1c-0.1,0.2-0.2,0.4-0.4,0.6c-0.7,1.3-1.3,2.3-1.6,2.7C19.6,134.1,18.4,135,18.4,137.5z"/>
			<path class="st8" d="M18.3,141.8c0-0.1,0-0.2,0-0.3c-0.1,1.5-0.1,3.1-0.2,4.9c0,0,0,0,0.1,0.1c0.1-1.5,0.1-2.7,0.2-3.9
				C18.3,142.3,18.3,142,18.3,141.8z"/>
			<path class="st8" d="M77.5,118.4c0-0.2,0.1-0.4,0.1-0.7c0.1-0.6,0.3-1,0.2-1.6c0-0.1,0-0.1,0-0.2c0,0.2-0.1,0.5-0.2,0.8
				C77.4,117.4,77.4,117.9,77.5,118.4z"/>
			<path class="st8" d="M165.9,103.2c-0.2,0.2-0.3,0.4-0.3,0.4c0.4,0.8,1,2.3,1.3,3.4c0.1,0.3,0.1,0.5,0.2,0.8
				c0.1,0.2,0.1,0.5,0.2,0.8c0.1,0.3,0.1,0.6,0.2,0.9v0.1c0.1,0.3,0.1,0.5,0.2,0.8c0,0.2,0.1,0.3,0.1,0.5c0.1,0.3,0.1,0.6,0.2,0.9
				c0.4,2.2,0.7,4.5,0.9,6.7c1.4,1.3,2.7,2.4,3.5,3s2,1.6,3.1,2.7c0.1-0.1,0.2-0.3,0.3-0.5s0.2-0.4,0.3-0.6c0.2-0.3,0.3-0.7,0.5-1
				c0.2-0.5,3.4-6.6,3.6-6.8l-0.1,0.1c-0.1,0.1-0.2,0.3-0.3,0.4l-0.1,0.1l-0.1,0.1c-0.3,0.3-0.6,0.7-0.8,1c-0.2,0.4-0.4,0.9-0.6,1.3
				c-0.2,0.5-0.6,0.8-0.7,1.3c-0.4,0.5-0.7,1-0.9,1.5c-0.2,0.3-0.3,0.7-0.5,1c-0.1,0.2-0.2,0.4-0.3,0.6s-0.2,0.4-0.3,0.5
				c-1.1-1.1-2.3-2.1-3.1-2.7s-2.1-1.7-3.5-3c-0.2-2.2-0.5-4.5-0.9-6.7c-0.1-0.3-0.1-0.6-0.2-0.9c0-0.2-0.1-0.3-0.1-0.5
				c-0.1-0.3-0.1-0.5-0.2-0.8v-0.1c-0.1-0.3-0.1-0.6-0.2-0.9c-0.1-0.3-0.1-0.6-0.2-0.8c-0.1-0.3-0.1-0.5-0.2-0.8
				C166.7,105.1,166.3,103.9,165.9,103.2z"/>
			<path class="st8" d="M37.4,122.9c2.6,3.8,6.6,10.9,7.8,14.4c0.3,0.8,0.5,1.4,0.7,2c0.3-0.1,0.7-0.1,1-0.2c0,0,0.1,0,0.2,0
				c0.1-2.7,0.1-5.3,0.1-7.1l0,0c0,1.7,0,3.9-0.1,6.1c-0.1,0-0.2,0-0.2,0c-0.3,0.1-0.7,0.1-1,0.2c-0.2-0.6-0.4-1.2-0.7-2
				c-1.2-3.5-5.1-10.5-7.7-14.3c-0.1,0.2-0.2,0.5-0.3,0.7C37.3,122.7,37.3,122.8,37.4,122.9z"/>
			<path class="st8" d="M91.7,128.4c-0.2-1.7-0.9-4.7-1.7-6.1c0,0,0-1.9,0-3.6c0,1.9,0,4.6,0,4.6c0.8,1.4,1.5,4.4,1.7,6.1
				c2.2-1.2,4.8-2.1,7.1-2c3.5,0.2,6,0.4,8.2,2.3c-0.1-0.4-0.3-0.9-0.4-1.3c-2.1-1.6-4.5-1.8-7.8-2
				C96.5,126.3,93.9,127.2,91.7,128.4z"/>
			<path class="st8" d="M54.9,125.8c0.1,2.9,0.1,9,0.3,10.7c0.1,0.6,0.3,1.8,0.5,3.4c2.9,1.5,4.3,4.2,5,6.7c0.5,1.8,0.9,3.4,1.4,5
				c0.3-0.1,0.6-0.1,1-0.4c0.6-0.4,1-1.2,1.6-1.7c0.4-0.3,1.2-1,1.6-1.3c-0.1-0.2-0.3-0.4-0.4-0.7c-0.3,0.2-0.9,0.8-1.2,1
				c-0.6,0.5-1,1.3-1.6,1.7c-0.4,0.3-0.7,0.3-1,0.4c-0.5-1.6-0.9-3.2-1.4-5c-0.7-2.5-2.1-5.2-5-6.7c-0.2-1.6-0.4-2.8-0.5-3.4
				c-0.2-1.7-0.2-7.8-0.3-10.7c0-0.9-0.1-1.6-0.1-2.1C54.7,123.3,54.8,124.1,54.9,125.8z"/>
			<path class="st8" d="M123.7,128c0-0.7-1.8-2.8-3.7-4.8c-0.2,0.1-0.3,0.3-0.4,0.4c2.1,2.2,4.1,4.7,4.1,5.3
				C123.7,128.5,123.7,128.1,123.7,128z"/>
			<path class="st8" d="M88.8,115.6c0.2-0.1,0.4-0.2,0.7-0.2c0.4,0,0.5,0.2,0.5,0.7c0-0.1,0-0.1,0-0.2v-0.1c0.1-0.3,0.1-0.5,0-0.7
				c0-0.5-0.1-0.7-0.5-0.7c-0.3,0-0.5,0.1-0.7,0.2c-0.2-0.1-0.3-0.1-0.4-0.2C88.4,114.9,88.1,115.4,88.8,115.6z"/>
			<path class="st8" d="M84.4,86.9c0.4-0.5,1,0.6,1.3,1.9c0.3,0.8,0.5,1.9,0.6,2.8c0.1-0.9-0.2-2.7-0.6-3.8
				c-0.3-1.3-0.9-2.4-1.3-1.9c-0.3,0.3-0.3,1-0.3,2C84.1,87.4,84.2,87.1,84.4,86.9z"/>
			<path class="st8" d="M133.3,152.7c0.5-1.9,0.4-4.5,0.9-6.5c0.6-2.5,1.9-4.7,2.8-7.2c0.6-1.6,1.3-3.9,2-6.3c0-0.7,0-1.4,0.2-2.2
				c0.2-1.1,0.8-2.7,1.7-4.2c0.5-2.5,0.6-4.7,0.7-5.7c0-0.3,0-0.6,0-0.9c-0.1,1-0.2,3.2-0.7,5.6c-0.9,1.5-1.5,3.1-1.7,4.2
				c-0.2,0.8-0.2,1.5-0.2,2.2c-0.7,2.4-1.4,4.7-2,6.3c-0.9,2.5-2.2,4.7-2.8,7.2c-0.5,2-0.4,4.6-0.9,6.5c-2.9-4.6-7.4-11.7-9.4-14.4
				c-0.1-0.2-0.2-0.3-0.4-0.5c0,0.3,0,0.6,0,1c0.2,0.2,0.3,0.3,0.4,0.5C125.9,141,130.4,148.1,133.3,152.7z"/>
			<path class="st8" d="M86.3,92.8c0,0,1.7-1.1,1.7-2.4s1.1-0.4,1.2,0.5c0,0.2,0,0.4,0.1,0.6c0-0.5,0-1.1-0.1-1.6
				C89.1,89,88,88.1,88,89.4c0,1.2-1.5,2.3-1.7,2.4V92.8z"/>
			<path class="st8" d="M56.8,112.1c0,0.4,0,0.7,0,1c0.1,1.6,0.6,2,1.8,0.7c1.3-1.2,2.6-3.3,4.3-3.3c0.4,0,0.7,0.1,0.8,0.2
				c0.4-0.7,0.3-1.2-0.8-1.2c-1.7,0-3,2.1-4.3,3.3C57.4,114.1,56.9,113.7,56.8,112.1z"/>
			<path class="st8" d="M88.6,94.8c0,0,1.9-0.2,2.8,0.9s2.2,2.6,3.3,2c0.7-0.4,0.8-1,0.6-1.8c-0.1,0.3-0.3,0.6-0.6,0.8
				c-1.1,0.6-2.4-0.9-3.3-2c-0.6-0.8-1.9-1-2.8-0.9C88.5,94.2,88.6,94.8,88.6,94.8z"/>
			<path class="st8" d="M14.4,109.9c0.8-0.5,3.7-2.6,4.9-2.8c1.3-0.2,3.3,0.5,4.4,1.2c0.1,0.1,0.2,0.1,0.2,0.2
				c0.2-0.3,0.3-0.9-0.2-1.2c-1.1-0.7-3.1-1.4-4.4-1.2c-1.2,0.2-4.1,2.3-4.9,2.8c-0.5,0.3-0.9,1.4-0.8,2.6
				C13.7,110.7,14,110.1,14.4,109.9z"/>
			<path class="st8" d="M94.7,93.6c0.4,0,1.3,0.5,2.1,1.6c0.2,0.3,0.3,0.6,0.4,1c0.1-0.7,0-1.3-0.4-2C95.4,92.1,93.8,92.2,94.7,93.6
				C94.7,93.5,94.7,93.5,94.7,93.6z"/>
			<path class="st8" d="M49.3,107.1c-1-0.1-1.6,0.8-2.8,1.4c-1.2,0.5-0.9,0.1-1.2,1.1c-0.2,0.6-0.2,1.8-0.2,3.2c0-1,0.1-1.8,0.2-2.2
				c0.3-1,0-0.6,1.2-1.1c1.2-0.6,1.8-1.5,2.8-1.4c1.1,0.1,1.4,0.1,2.3,0c0.9-0.1,2,0.4,2.4,0c0.5-0.5,1.1-1.4,1.4-4.2
				c0.4-2.8,0.5-3.7,1.6-3.5c0.5,0.1,0.7,0.8,0.7,1.6c0.1-1.3-0.1-2.5-0.7-2.6c-1.1-0.2-1.2,0.7-1.6,3.5c-0.3,2.8-0.9,3.7-1.4,4.2
				c-0.4,0.4-1.5-0.1-2.4,0C50.7,107.2,50.4,107.2,49.3,107.1z"/>
			<path class="st8" d="M23.7,109.9c0,0,3,0,4.6,0.7c1.2,0.6,2.1,2.4,2.6,3.6c1.7-3,3-4.8,3.2-6c0.1-0.3,0-0.6,0-0.9
				c-0.3,1.2-1.5,3-3.2,5.9c-0.5-1.2-1.4-3-2.6-3.6c-1.3-0.5-3.4-0.7-4.2-0.7C24.1,109.4,23.7,109.9,23.7,109.9z"/>
			<path class="st8" d="M32.1,97.2c0.8-0.9,1.3-0.9,2.1-2s2.1-1,2.7-1.7c0.6-0.7,0.8-2.1,1.7-2.5c1-0.3,2.4,0.6,3.2,1.8
				c0.8,1.1,3.3,5.4,3.3,5.4c0.2-1.2,2.3-4.6,3.2-5.7c0.7-0.9,2.5-0.9,3.2-0.4c0.1-0.2,0.2-0.4,0.2-0.6c0-0.8-2.5-1.1-3.4,0
				s-3,4.5-3.2,5.7c0,0-2.5-4.3-3.3-5.4c-0.8-1.2-2.2-2.1-3.2-1.8c-0.9,0.4-1.1,1.8-1.7,2.5c-0.6,0.7-1.9,0.6-2.7,1.7
				s-1.3,1.1-2.1,2c-0.5,0.6-0.7,1.8-0.6,3.1C31.5,98.4,31.7,97.6,32.1,97.2z"/>
			<path class="st8" d="M60,136.4c0.2-1.7,1.1-4,1.9-7.8c1.1-5.2,4.8-12.7,6.5-15.9c1.8-3.1,2.3-3.8,2.4-5.5s0.6-3.9,2.1-5.8
				c1.5-1.8,4.6-3.3,6-5.4s2.4-1.9,2.6-3.9c0.3-2.1,0.5-3.4,1.1-3.6c0.4-0.2,0.7,0.4,0.7,1.3c0.1-1.5-0.2-2.6-0.7-2.3
				c-0.6,0.2-0.8,1.5-1.1,3.6c-0.2,2-1.2,1.8-2.6,3.9s-4.5,3.6-6,5.4c-1.5,1.9-2,4.1-2.1,5.8c-0.1,1.7-0.6,2.4-2.4,5.5
				c-1.7,3.2-5.4,10.7-6.5,15.9C60.9,132.2,59.8,134.6,60,136.4z"/>
			<path class="st8" d="M170.1,138.8L170.1,138.8L170.1,138.8L170.1,138.8z"/>
			<path class="st8" d="M146.9,109.3c1.7,3,3.7,5.9,5.9,8.5c0.9,1,1.8,2.1,2.7,3.1c1.4,0.3,4,1.6,5.2,2.3c0-0.1-0.5-0.7-1.3-1.7
				c-0.8-0.5-2.6-1.5-3.9-1.6c-0.9-1-1.8-2.1-2.7-3.1c-2.2-2.6-4.2-5.5-5.9-8.4c0,0.1,0,0.3,0,0.4
				C146.9,109,146.9,109.1,146.9,109.3z"/>
			<path class="st8" d="M98,102.7c1.8,1.8,6.3,6.5,10.5,10.6c1.8-4,4.6-9.2,6.7-12.3c2.7-4.1,5.9-7.8,6.3-8.6c0.4-0.8,1.4-4,3.1-4.7
				c1.6-0.7,4.7-0.7,4.7-0.7s0-0.5,0-1c-0.9,0-3.4,0.2-4.7,0.7c-1.7,0.7-2.7,3.9-3.1,4.7c-0.4,0.8-3.6,4.5-6.3,8.6
				c-2.1,3.1-4.9,8.3-6.7,12.3c-4.2-4.1-8.7-8.8-10.5-10.6c-0.8-0.8-1.1-1.6-1.2-2.3C96.7,100.4,96.8,101.5,98,102.7z"/>
			<path class="st8" d="M118.3,116.3c0.6-0.3,0.9-1.7,1.6-1.1c0.3,0.2,0.4,0.5,0.5,0.8c0.2-0.6,0.1-1.3-0.5-1.8
				c-0.7-0.6-1,0.8-1.6,1.1c-0.1,0.3-0.7,1.1-0.9,1.4c-0.1,0.5-0.3,1-0.4,1.5C117.4,117.8,118.1,116.8,118.3,116.3z"/>
			<path class="st8" d="M129.8,81.2c0.7-1,2.3,0.8,3.7,2.7c0.1,0,0.2,0,0.3,0c1.2,0.3,4.2,2.5,5,3.1c0.4,0.2,0.7,0.9,0.8,1.8
				c0.1-1.3-0.2-2.5-0.8-2.8c-0.8-0.6-3.8-2.8-5-3.1c-0.1,0-0.2,0-0.3,0c-1.4-1.9-3-3.7-3.7-2.7C129.6,80.5,129.7,80.9,129.8,81.2
				C129.8,81.3,129.8,81.2,129.8,81.2z"/>
			<path class="st8" d="M156.3,100.8c0.3-0.5,0.8-0.9,1.1-1.5s0.6-0.9,1.4-1.3s1.5-1.2,2.1-1.8c0.6-0.6,2.6,1,3.5,2.4
				c0.8,1.3,2.2,1.9,2.5,2.9c0.1-0.2,0.1-0.5,0.1-0.7c-0.1-1.1-1.7-1.8-2.6-3.2c-0.9-1.4-2.9-3-3.5-2.4s-1.3,1.4-2.1,1.8
				s-1.1,0.7-1.4,1.3c-0.3,0.6-0.8,1-1.1,1.5s-0.3,2.6-0.3,2.6s0,0,0,0.1C156.1,101.8,156.1,101.1,156.3,100.8z"/>
			<path class="st8" d="M129.3,85.2c0.4-0.3,1.5-0.9,1.5-0.9c0.2-0.2,0.2-0.6,0-0.9c-0.6,0.2-1.2,0.6-1.5,0.8
				c-0.5,0.4-0.4,0.9-0.3,1.3C129.1,85.4,129.2,85.3,129.3,85.2z"/>
			<path class="st8" d="M138.8,91.8C138.8,91.9,138.8,91.9,138.8,91.8c0.1,0.3,0.2,0.4,0.3,0.5c0.5,0.6,1,1.3,1.4,2
				c0.5-0.4,0.9-0.7,2.1-0.8c2.1-0.2,2.8-0.9,5,1.4s2.8,4.9,3.4,6.1c0.7,1.2,4.4,4.9,7.2,7.7c0.7,0.8,1.9,1.9,3.3,3.2
				c0-0.4-0.1-0.7-0.1-1.1c-1.4-1.3-2.5-2.3-3.2-3.1c-2.8-2.8-6.5-6.5-7.2-7.7c-0.6-1.2-1.2-3.8-3.4-6.1c-2.2-2.3-2.9-1.6-5-1.4
				c-1.2,0.1-1.6,0.4-2.1,0.8c-0.4-0.7-1.2-1.8-1.7-2.4C138.7,91.1,138.7,91.5,138.8,91.8z"/>
		</g>
		<g class="st7">
			<path class="st8" d="M17,119.1c0,0-1.1-1.2-2.7-2.3c-1.5-1-1.2-1.7-3.3-1.9c-2.1-0.1-2.8-0.8-4.9,1.3c-0.1,0.1-0.3,0.3-0.4,0.4
				s-0.2,0.2-0.3,0.4c-0.1,0.1-0.2,0.2-0.2,0.3c-0.1,0.1-0.1,0.2-0.2,0.3c-0.1,0.1-0.2,0.2-0.2,0.3c-0.2,0.3-0.6,0.9-0.8,1.2
				c0,0.1,0.1,0.2,0.1,0.3c0,0.1,0.1,0.3,0.1,0.4c0.1-0.2,0.4-0.6,0.5-0.8c0-0.1,0.1-0.2,0.2-0.3c0.1-0.1,0.1-0.2,0.2-0.3
				c0-0.1,0.1-0.2,0.2-0.3c0.1-0.2,0.2-0.3,0.3-0.4c0.1-0.1,0.3-0.3,0.4-0.4c2.1-2.1,2.8-1.4,4.9-1.3c2.1,0.2,1.8,0.9,3.3,1.9
				c1.6,1.1,2.7,2.3,2.7,2.3c0.3,0.1,0.4,0.2,0.5,0.5c0-0.1,0.1-0.1,0.1-0.2s0-0.2,0-0.3C17.6,119.5,17.4,119.2,17,119.1z"/>
			<path class="st8" d="M10.2,128.9c-0.1,0.1,1.7,6.5,2.5,9.3c0.2,0.3,0.4,0.7,0.6,1C13.3,139.3,10.5,129.9,10.2,128.9
				C10.2,129,10.2,129,10.2,128.9z"/>
		</g>
		<linearGradient id="SVGID_8_" gradientUnits="userSpaceOnUse" x1="88.1" y1="120.1" x2="88.1" y2="120.1">
			<stop  offset="0" style="stop-color:#000000"/>
			<stop  offset="0.1944" style="stop-color:#000C14"/>
			<stop  offset="1" style="stop-color:#003A65"/>
		</linearGradient>
		<path class="st9" d="M88.1,120.1L88.1,120.1L88.1,120.1L88.1,120.1z"/>
		<linearGradient id="SVGID_9_" gradientUnits="userSpaceOnUse" x1="128.6" y1="98.6785" x2="128.6" y2="98.6203">
			<stop  offset="0" style="stop-color:#000000"/>
			<stop  offset="0.1944" style="stop-color:#000C14"/>
			<stop  offset="1" style="stop-color:#003A65"/>
		</linearGradient>
		<path class="st10" d="M128.6,98.6C128.6,98.7,128.6,98.7,128.6,98.6L128.6,98.6z"/>
		<linearGradient id="SVGID_10_" gradientUnits="userSpaceOnUse" x1="128.5" y1="98.6" x2="128.5" y2="98.6">
			<stop  offset="0" style="stop-color:#000000"/>
			<stop  offset="0.1944" style="stop-color:#000C14"/>
			<stop  offset="1" style="stop-color:#003A65"/>
		</linearGradient>
		<path class="st11" d="M128.5,98.6L128.5,98.6L128.5,98.6z"/>
		<linearGradient id="SVGID_11_" gradientUnits="userSpaceOnUse" x1="128.4" y1="98.3" x2="128.4" y2="98.3">
			<stop  offset="0" style="stop-color:#000000"/>
			<stop  offset="0.1944" style="stop-color:#000C14"/>
			<stop  offset="1" style="stop-color:#003A65"/>
		</linearGradient>
		<path class="st12" d="M128.4,98.3L128.4,98.3L128.4,98.3z"/>
	</g>
	<g>
		<linearGradient id="SVGID_12_" gradientUnits="userSpaceOnUse" x1="17.7345" y1="52.0107" x2="78.6231" y2="140.4442">
			<stop  offset="0" style="stop-color:#FFFFFF;stop-opacity:0.6"/>
			<stop  offset="1" style="stop-color:#FFFFFF;stop-opacity:0"/>
		</linearGradient>
		<path class="st13" d="M143.4,167.4c-14.7,10.1-32.5,15.9-51.7,15.9c-12.2,0-23.8-2.4-34.4-6.7L6,59c0-0.1,0.1-0.2,0.1-0.2
			c0.2-0.4,0.3-0.9,0.5-1.3c1.2-2.9,2.5-5.8,4-8.5c0.2-0.3,0.3-0.7,0.5-1c0.7-1.3,1.4-2.6,2.2-3.8c0.2-0.4,0.5-0.8,0.7-1.1
			c0.4-0.6,0.7-1.1,1.1-1.7l0,0c0.4-0.5,0.7-1.1,1.1-1.6c0.4-0.5,0.7-1.1,1.1-1.6c0.1-0.1,0.2-0.3,0.3-0.4c0.3-0.4,0.6-0.8,0.8-1.1
			c0.2-0.2,0.3-0.4,0.5-0.6c0.7-0.9,1.3-1.7,2-2.5l0,0c0.4-0.5,0.8-1,1.2-1.5L143.4,167.4z"/>
		<g>
			<path class="st14" d="M50,85.9c0.3,0.4,0.2,1-0.2,1.2c-0.4,0.3-1,0.2-1.2-0.2c-0.3-0.4-0.2-1,0.2-1.2
				C49.2,85.4,49.7,85.5,50,85.9z"/>
			<path class="st15" d="M47,69.1c0.3,0.4,0.2,1-0.2,1.2s-1,0.2-1.2-0.2c-0.3-0.4-0.2-1,0.2-1.2S46.7,68.7,47,69.1z"/>
			<path class="st15" d="M28.6,41.6c0.3,0.4,0.2,1-0.2,1.2c-0.4,0.3-1,0.2-1.2-0.2c-0.3-0.4-0.2-1,0.2-1.2
				C27.8,41.1,28.3,41.2,28.6,41.6z"/>
			<path class="st16" d="M131.7,106c0.3,0.4,0.2,1-0.2,1.2c-0.4,0.3-1,0.2-1.2-0.2c-0.3-0.4-0.2-1,0.2-1.2
				C130.8,105.5,131.4,105.6,131.7,106z"/>
			<path class="st15" d="M22.7,49.3c0.3,0.4,0.2,1-0.2,1.2s-1,0.2-1.2-0.2c-0.3-0.4-0.2-1,0.2-1.2C21.9,48.8,22.4,48.9,22.7,49.3z"
				/>
			<path class="st15" d="M48.3,78.7c0.2,0.2,0.1,0.6-0.1,0.7c-0.2,0.2-0.6,0.1-0.7-0.1c-0.2-0.2-0.1-0.6,0.1-0.7
				C47.8,78.3,48.1,78.4,48.3,78.7z"/>
			<path class="st16" d="M86.2,123c0.2,0.2,0.1,0.6-0.1,0.7c-0.2,0.2-0.6,0.1-0.7-0.1c-0.2-0.2-0.1-0.6,0.1-0.7
				C85.7,122.7,86,122.7,86.2,123z"/>
			<path class="st15" d="M43.6,72.7c0.2,0.2,0.1,0.6-0.1,0.7c-0.2,0.2-0.6,0.1-0.7-0.1c-0.2-0.2-0.1-0.6,0.1-0.7
				C43.1,72.4,43.4,72.5,43.6,72.7z"/>
			<path class="st15" d="M39.2,74.5c0.2,0.2,0.1,0.6-0.1,0.7c-0.2,0.2-0.6,0.1-0.7-0.1c-0.2-0.2-0.1-0.6,0.1-0.7
				C38.7,74.2,39,74.2,39.2,74.5z"/>
			<path class="st15" d="M27.1,46.9c0.2,0.2,0.1,0.6-0.1,0.7c-0.2,0.2-0.6,0.1-0.7-0.1c-0.2-0.2-0.1-0.6,0.1-0.7
				C26.6,46.6,26.9,46.7,27.1,46.9z"/>
			<path class="st14" d="M52.9,79.1c0.2,0.2,0.1,0.6-0.1,0.7C52.5,80,52.2,80,52,79.7c-0.2-0.2-0.1-0.6,0.1-0.7
				C52.4,78.8,52.7,78.9,52.9,79.1z"/>
			<path class="st15" d="M25.2,60.5c0.2,0.2,0.1,0.6-0.1,0.7c-0.2,0.2-0.6,0.1-0.7-0.1c-0.2-0.2-0.1-0.6,0.1-0.7
				C24.7,60.2,25,60.3,25.2,60.5z"/>
			<path class="st16" d="M65.7,100.5c0.2,0.2,0.1,0.6-0.1,0.7c-0.2,0.2-0.6,0.1-0.7-0.1c-0.2-0.2-0.1-0.6,0.1-0.7
				C65.2,100.2,65.5,100.3,65.7,100.5z"/>
			<path class="st16" d="M80.3,87c0.2,0.2,0.1,0.6-0.1,0.7c-0.2,0.2-0.6,0.1-0.7-0.1c-0.2-0.2-0.1-0.6,0.1-0.7
				C79.8,86.7,80.1,86.7,80.3,87z"/>
			<path class="st16" d="M74.7,118.5c0.2,0.2,0.1,0.6-0.1,0.7c-0.2,0.2-0.6,0.1-0.7-0.1s-0.1-0.6,0.1-0.7
				C74.2,118.2,74.5,118.2,74.7,118.5z"/>
			<path class="st16" d="M61.9,84.5c0.2,0.2,0.1,0.6-0.1,0.7c-0.2,0.2-0.6,0.1-0.7-0.1c-0.2-0.2-0.1-0.6,0.1-0.7
				C61.5,84.2,61.8,84.2,61.9,84.5z"/>
			<path class="st15" d="M38.3,59.8c0.2,0.2,0.1,0.6-0.1,0.7c-0.2,0.2-0.6,0.1-0.7-0.1c-0.2-0.2-0.1-0.6,0.1-0.7
				S38.2,59.6,38.3,59.8z"/>
			<path class="st15" d="M29.6,58.7c0.1,0.2,0.1,0.4-0.1,0.5s-0.4,0.1-0.5-0.1c-0.1-0.2-0.1-0.4,0.1-0.5
				C29.2,58.5,29.5,58.6,29.6,58.7z"/>
		</g>
		<g>
			<path class="st15" d="M35.9,76c-0.3-0.4-0.1-1,0.3-1.2c0.4-0.3,1-0.1,1.2,0.3c0.3,0.4,0.1,1-0.3,1.2S36.2,76.4,35.9,76z"/>
			<path class="st14" d="M38.4,93c-0.3-0.4-0.1-1,0.3-1.2c0.4-0.3,1-0.1,1.2,0.3c0.3,0.4,0.1,1-0.3,1.2S38.6,93.4,38.4,93z"/>
			<path class="st14" d="M55.9,121c-0.3-0.4-0.1-1,0.3-1.2s1-0.1,1.2,0.3c0.3,0.4,0.1,1-0.3,1.2C56.7,121.5,56.2,121.4,55.9,121z"/>
			<path class="st15" d="M35.1,65.4c-0.3-0.4-0.1-1,0.3-1.2c0.4-0.3,1-0.1,1.2,0.3c0.3,0.4,0.1,1-0.3,1.2
				C35.9,66,35.3,65.8,35.1,65.4z"/>
			<path class="st16" d="M62,113.5c-0.3-0.4-0.1-1,0.3-1.2c0.4-0.3,1-0.1,1.2,0.3c0.3,0.4,0.1,1-0.3,1.2S62.3,113.9,62,113.5z"/>
			<path class="st15" d="M37.4,83.4c-0.2-0.2-0.1-0.6,0.2-0.7c0.2-0.2,0.6-0.1,0.7,0.2c0.2,0.2,0.1,0.6-0.2,0.7
				C37.9,83.7,37.6,83.6,37.4,83.4z"/>
			<path class="st15" d="M14.7,66.4c-0.2-0.2-0.1-0.6,0.2-0.7c0.2-0.2,0.6-0.1,0.7,0.2c0.2,0.2,0.1,0.6-0.2,0.7
				C15.2,66.7,14.8,66.6,14.7,66.4z"/>
			<path class="st16" d="M41.9,89.4c-0.2-0.2-0.1-0.6,0.2-0.7c0.2-0.2,0.6-0.1,0.7,0.2c0.2,0.2,0.1,0.6-0.2,0.7
				C42.4,89.8,42.1,89.7,41.9,89.4z"/>
			<path class="st16" d="M46.4,87.8c-0.2-0.2-0.1-0.6,0.2-0.7c0.2-0.2,0.6-0.1,0.7,0.2c0.2,0.2,0.1,0.6-0.2,0.7
				C46.9,88.1,46.6,88.1,46.4,87.8z"/>
			<path class="st16" d="M57.6,115.8c-0.2-0.2-0.1-0.6,0.2-0.7c0.2-0.2,0.6-0.1,0.7,0.2c0.2,0.2,0.1,0.6-0.2,0.7
				S57.7,116,57.6,115.8z"/>
			<path class="st15" d="M32.8,82.7c-0.2-0.2-0.1-0.6,0.2-0.7c0.2-0.2,0.6-0.1,0.7,0.2c0.2,0.2,0.1,0.6-0.2,0.7
				C33.3,83,33,83,32.8,82.7z"/>
			<path class="st14" d="M59.9,102.2c-0.2-0.2-0.1-0.6,0.2-0.7c0.2-0.2,0.6-0.1,0.7,0.2c0.2,0.2,0.1,0.6-0.2,0.7
				C60.4,102.5,60.1,102.5,59.9,102.2z"/>
			<path class="st15" d="M20.7,60.9c-0.2-0.2-0.1-0.6,0.2-0.7c0.2-0.2,0.6-0.1,0.7,0.2c0.2,0.2,0.1,0.6-0.2,0.7
				C21.2,61.2,20.9,61.2,20.7,60.9z"/>
			<path class="st15" d="M25.7,88.9c-0.2-0.2-0.1-0.6,0.2-0.7c0.2-0.2,0.6-0.1,0.7,0.2c0.2,0.2,0.1,0.6-0.2,0.7
				C26.2,89.2,25.9,89.1,25.7,88.9z"/>
			<path class="st16" d="M56,93.6c-0.2-0.2-0.1-0.6,0.2-0.7s0.6-0.1,0.7,0.2c0.2,0.2,0.1,0.6-0.2,0.7C56.5,93.9,56.2,93.9,56,93.6z"
				/>
			<path class="st15" d="M23.9,77.1c-0.2-0.2-0.1-0.6,0.2-0.7c0.2-0.2,0.6-0.1,0.7,0.2c0.2,0.2,0.1,0.6-0.2,0.7
				C24.4,77.4,24.1,77.3,23.9,77.1z"/>
			<path class="st14" d="M46.7,102.5c-0.2-0.2-0.1-0.6,0.2-0.7c0.2-0.2,0.6-0.1,0.7,0.2c0.2,0.2,0.1,0.6-0.2,0.7
				C47.2,102.8,46.9,102.7,46.7,102.5z"/>
			<path class="st16" d="M55.5,103.9c-0.1-0.2-0.1-0.4,0.1-0.5c0.2-0.1,0.4-0.1,0.5,0.1s0.1,0.4-0.1,0.5
				C55.8,104.1,55.6,104,55.5,103.9z"/>
		</g>
	</g>
	<g class="st17">
		<g>
			<path class="st18" d="M84.1,5.5c0.1-0.1,0.2-0.1,0.3,0c0.1,0.1,0.1,0.2,0,0.3c-0.1,0.1-0.2,0.1-0.3,0C84,5.7,84,5.6,84.1,5.5z"/>
		</g>
		<g>
			<path class="st18" d="M115.1,64.2c0.1-0.1,0.3-0.1,0.4,0s0.1,0.3,0,0.4s-0.3,0.1-0.4,0S115,64.4,115.1,64.2z"/>
		</g>
		<g>
			<path class="st18" d="M112.1,61.1c0.1-0.1,0.2-0.1,0.3,0c0.1,0.1,0.1,0.2,0,0.3s-0.2,0.1-0.3,0C112.1,61.3,112.1,61.2,112.1,61.1
				z"/>
		</g>
		<g>
			<path class="st18" d="M83.1,9.7c0.1-0.1,0.3-0.1,0.4,0s0.1,0.3,0,0.4c-0.1,0.1-0.3,0.1-0.4,0C83,10,83,9.8,83.1,9.7z"/>
		</g>
		<g>
			<path class="st18" d="M95.2,14.8c0.1-0.1,0.3-0.1,0.4,0s0.1,0.3,0,0.4c-0.1,0.1-0.3,0.1-0.4,0C95.1,15.1,95.1,14.9,95.2,14.8z"/>
		</g>
		<g>
			<path class="st18" d="M101.7,15.9c0.1-0.1,0.3-0.1,0.4,0s0.1,0.3,0,0.4s-0.3,0.1-0.4,0C101.6,16.2,101.6,16,101.7,15.9z"/>
		</g>
		<g>
			<path class="st18" d="M111.1,15.5c0.1-0.1,0.2-0.1,0.3,0c0.1,0.1,0.1,0.2,0,0.3s-0.2,0.1-0.3,0C111,15.8,111,15.6,111.1,15.5z"/>
		</g>
		<g>
			<path class="st18" d="M115.8,19.9c0.1-0.1,0.2-0.1,0.2,0c0.1,0.1,0.1,0.2,0,0.2c-0.1,0.1-0.2,0.1-0.2,0
				C115.8,20.1,115.8,20,115.8,19.9z"/>
		</g>
		<g>
			<path class="st18" d="M75.4,10.3c0.1-0.1,0.2-0.1,0.3,0c0.1,0.1,0.1,0.2,0,0.3s-0.2,0.1-0.3,0C75.3,10.6,75.3,10.4,75.4,10.3z"/>
		</g>
		<g>
			<path class="st18" d="M114.1,64.2c0.1-0.1,0.3-0.1,0.4,0s0.1,0.3,0,0.4s-0.3,0.1-0.4,0S114,64.3,114.1,64.2z"/>
		</g>
		<g>
			<path class="st18" d="M107.6,54.8c0.1-0.2,0.4-0.2,0.5,0c0.2,0.1,0.2,0.4,0,0.5c-0.1,0.2-0.4,0.2-0.5,0
				C107.5,55.2,107.5,54.9,107.6,54.8z"/>
		</g>
		<g>
			<path class="st18" d="M97,52.3c0.1-0.1,0.2-0.1,0.3,0c0.1,0.1,0.1,0.2,0,0.3s-0.2,0.1-0.3,0C96.9,52.5,96.9,52.4,97,52.3z"/>
		</g>
		<g>
			<path class="st18" d="M92.7,49.2c0.1-0.1,0.3-0.1,0.4,0s0.1,0.3,0,0.4c-0.1,0.1-0.3,0.1-0.4,0C92.6,49.5,92.6,49.3,92.7,49.2z"/>
		</g>
		<g>
			<path class="st18" d="M96.4,45.3c0.1-0.1,0.3-0.1,0.4,0s0.1,0.3,0,0.4c-0.1,0.1-0.3,0.1-0.4,0C96.3,45.6,96.3,45.4,96.4,45.3z"/>
		</g>
		<g>
			<path class="st18" d="M98.3,43.4c0.1-0.1,0.2-0.1,0.3,0c0.1,0.1,0.1,0.2,0,0.3s-0.2,0.1-0.3,0C98.2,43.6,98.2,43.5,98.3,43.4z"/>
		</g>
		<g>
			<path class="st18" d="M93.1,42c0.1-0.1,0.2-0.1,0.3,0c0.1,0.1,0.1,0.2,0,0.3s-0.2,0.1-0.3,0C93,42.3,93,42.1,93.1,42z"/>
		</g>
		<g>
			<path class="st18" d="M98.6,47.3c0.1-0.1,0.2-0.1,0.3,0c0.1,0.1,0.1,0.2,0,0.3s-0.2,0.1-0.3,0C98.5,47.5,98.5,47.4,98.6,47.3z"/>
		</g>
		<g>
			<path class="st18" d="M86,44.4c0.1-0.1,0.1-0.1,0.2,0s0.1,0.1,0,0.2c-0.1,0.1-0.1,0.1-0.2,0C85.9,44.5,85.9,44.4,86,44.4z"/>
		</g>
		<g>
			<path class="st18" d="M89.2,47.9c0.1-0.1,0.3-0.1,0.5,0c0.1,0.1,0.1,0.3,0,0.5c-0.1,0.1-0.3,0.1-0.5,0
				C89.1,48.2,89.1,48,89.2,47.9z"/>
		</g>
		<g>
			<path class="st18" d="M97.8,48.8c0.1-0.1,0.4-0.1,0.5,0s0.1,0.4,0,0.5s-0.4,0.1-0.5,0C97.7,49.1,97.7,48.9,97.8,48.8z"/>
		</g>
		<g>
			<path class="st18" d="M95.2,56.5c0.1-0.1,0.3-0.1,0.4,0s0.1,0.3,0,0.4c-0.1,0.1-0.3,0.1-0.4,0C95.1,56.8,95.1,56.7,95.2,56.5z"/>
		</g>
		<g>
			<path class="st18" d="M105.1,53.8c0.1-0.1,0.1-0.1,0.2,0s0.1,0.1,0,0.2c-0.1,0.1-0.1,0.1-0.2,0C105.1,53.9,105.1,53.8,105.1,53.8
				z"/>
		</g>
		<g>
			<path class="st18" d="M97.5,59.6c0.1-0.1,0.3-0.1,0.4,0s0.1,0.3,0,0.4c-0.1,0.1-0.3,0.1-0.4,0C97.4,59.8,97.4,59.7,97.5,59.6z"/>
		</g>
		<g>
			<path class="st18" d="M91.5,60.2c0.1-0.1,0.2-0.1,0.2,0c0.1,0.1,0.1,0.2,0,0.2c-0.1,0.1-0.2,0.1-0.2,0
				C91.4,60.3,91.4,60.2,91.5,60.2z"/>
		</g>
		<g>
			<path class="st18" d="M93.7,50.9c0.1-0.2,0.4-0.2,0.5,0c0.1,0.1,0.2,0.4,0,0.5c-0.1,0.1-0.4,0.2-0.5,0S93.6,51,93.7,50.9z"/>
		</g>
		<g>
			<path class="st18" d="M83.6,58.3c0.1-0.1,0.2-0.1,0.3,0c0.1,0.1,0.1,0.2,0,0.3s-0.2,0.1-0.3,0C83.6,58.5,83.6,58.4,83.6,58.3z"/>
		</g>
		<g>
			<path class="st18" d="M90.5,58.8c0.1-0.1,0.3-0.1,0.4,0s0.1,0.3,0,0.4c-0.1,0.1-0.3,0.1-0.4,0C90.4,59.1,90.4,58.9,90.5,58.8z"/>
		</g>
		<g>
			<path class="st18" d="M77,11.4c0.1-0.1,0.3-0.1,0.4,0s0.1,0.3,0,0.4c-0.1,0.1-0.3,0.1-0.4,0C76.9,11.7,76.9,11.5,77,11.4z"/>
		</g>
		<g>
			<path class="st18" d="M95.1,32.2c0.1-0.1,0.2-0.1,0.3,0c0.1,0.1,0.1,0.2,0,0.3s-0.2,0.1-0.3,0C95,32.5,95,32.3,95.1,32.2z"/>
		</g>
		<g>
			<path class="st18" d="M75.4,25.8c0.1-0.1,0.2-0.1,0.2,0c0.1,0.1,0.1,0.2,0,0.2c-0.1,0.1-0.2,0.1-0.2,0
				C75.4,26,75.4,25.9,75.4,25.8z"/>
		</g>
		<g>
			<path class="st18" d="M76,17.5c0.1-0.1,0.3-0.1,0.4,0s0.1,0.3,0,0.4s-0.3,0.1-0.4,0S75.9,17.6,76,17.5z"/>
		</g>
		<g>
			<path class="st18" d="M72,11.4c0.1-0.1,0.4-0.1,0.5,0s0.1,0.4,0,0.5s-0.4,0.1-0.5,0C71.9,11.8,71.9,11.6,72,11.4z"/>
		</g>
		<g>
			<path class="st18" d="M56.1,14.6c0.1-0.1,0.1-0.1,0.2,0c0.1,0.1,0.1,0.1,0,0.2c-0.1,0.1-0.1,0.1-0.2,0C56,14.7,56,14.6,56.1,14.6
				z"/>
		</g>
		<g>
			<path class="st18" d="M59,14.2c0.1-0.1,0.2-0.1,0.3,0s0.1,0.2,0,0.3s-0.2,0.1-0.3,0S58.9,14.3,59,14.2z"/>
		</g>
		<g>
			<path class="st18" d="M57.3,16.8c0.1-0.1,0.3-0.1,0.4,0c0.1,0.1,0.1,0.3,0,0.4s-0.3,0.1-0.4,0C57.2,17.1,57.2,16.9,57.3,16.8z"/>
		</g>
		<g>
			<path class="st18" d="M76.3,109.1c0.1-0.1,0.3-0.1,0.5,0c0.1,0.1,0.1,0.3,0,0.5c-0.1,0.1-0.3,0.1-0.5,0
				C76.2,109.5,76.2,109.3,76.3,109.1z"/>
		</g>
		<g>
			<path class="st18" d="M79.5,108.6c0.1-0.1,0.2-0.1,0.3,0c0.1,0.1,0.1,0.2,0,0.3c-0.1,0.1-0.2,0.1-0.3,0
				C79.4,108.8,79.4,108.7,79.5,108.6z"/>
		</g>
		<g>
			<path class="st18" d="M86.8,108c0.1-0.1,0.2-0.1,0.3,0c0.1,0.1,0.1,0.2,0,0.3c-0.1,0.1-0.2,0.1-0.3,0
				C86.7,108.3,86.7,108.1,86.8,108z"/>
		</g>
		<g>
			<path class="st18" d="M89.1,112.4c0.1-0.1,0.2-0.1,0.3,0c0.1,0.1,0.1,0.2,0,0.3c-0.1,0.1-0.2,0.1-0.3,0
				C89,112.6,89,112.5,89.1,112.4z"/>
		</g>
		<g>
			<path class="st18" d="M93.7,115c0.1-0.1,0.2-0.1,0.2,0c0.1,0.1,0.1,0.2,0,0.2c-0.1,0.1-0.2,0.1-0.2,0
				C93.6,115.2,93.6,115.1,93.7,115z"/>
		</g>
		<g>
			<path class="st18" d="M90.1,126.9c0.1-0.1,0.3-0.1,0.5,0c0.1,0.1,0.1,0.3,0,0.5c-0.1,0.1-0.3,0.1-0.5,0
				C90,127.2,90,127,90.1,126.9z"/>
		</g>
		<g>
			<path class="st18" d="M99.1,121.3c0.1-0.1,0.4-0.1,0.5,0s0.1,0.4,0,0.5s-0.4,0.1-0.5,0C99,121.6,99,121.4,99.1,121.3z"/>
		</g>
		<g>
			<path class="st18" d="M103.7,125.9c0.1-0.1,0.2-0.1,0.3,0c0.1,0.1,0.1,0.2,0,0.3c-0.1,0.1-0.2,0.1-0.3,0
				C103.6,126.1,103.6,126,103.7,125.9z"/>
		</g>
		<g>
			<path class="st18" d="M99.9,126c0.1-0.1,0.2-0.1,0.3,0c0.1,0.1,0.1,0.2,0,0.3c-0.1,0.1-0.2,0.1-0.3,0
				C99.8,126.2,99.8,126.1,99.9,126z"/>
		</g>
		<g>
			<path class="st18" d="M98.1,124.7c0.1-0.1,0.3-0.1,0.4,0s0.1,0.3,0,0.4s-0.3,0.1-0.4,0C98,124.9,98,124.8,98.1,124.7z"/>
		</g>
		<g>
			<path class="st18" d="M97.2,121.5c0.1-0.1,0.3-0.1,0.4,0s0.1,0.3,0,0.4s-0.3,0.1-0.4,0S97.1,121.6,97.2,121.5z"/>
		</g>
		<g>
			<path class="st18" d="M97,116.6c0.1-0.1,0.2-0.1,0.3,0c0.1,0.1,0.1,0.2,0,0.3c-0.1,0.1-0.2,0.1-0.3,0
				C96.9,116.8,96.9,116.7,97,116.6z"/>
		</g>
		<g>
			<path class="st18" d="M91.7,116.2c0.1-0.1,0.3-0.1,0.5,0c0.1,0.1,0.1,0.3,0,0.5c-0.1,0.1-0.3,0.1-0.5,0
				C91.6,116.5,91.6,116.3,91.7,116.2z"/>
		</g>
		<g>
			<path class="st18" d="M90.5,113.8c0.1-0.1,0.3-0.1,0.4,0s0.1,0.3,0,0.4s-0.3,0.1-0.4,0C90.4,114.1,90.4,113.9,90.5,113.8z"/>
		</g>
		<g>
			<path class="st18" d="M87.7,103.6c0.1-0.1,0.1-0.1,0.2,0c0.1,0,0.1,0.1,0,0.2s-0.1,0.1-0.2,0C87.7,103.8,87.7,103.7,87.7,103.6z"
				/>
		</g>
		<g>
			<path class="st18" d="M78.5,100.2c0.1-0.1,0.3-0.1,0.4,0s0.1,0.3,0,0.4s-0.3,0.1-0.4,0S78.4,100.3,78.5,100.2z"/>
		</g>
		<g>
			<path class="st18" d="M56,14.5c0.1-0.1,0.1-0.1,0.2,0c0.1,0.1,0.1,0.1,0,0.2c-0.1,0.1-0.1,0.1-0.2,0C55.9,14.6,55.9,14.5,56,14.5
				z"/>
		</g>
		<g>
			<path class="st18" d="M121.1,20.2c0.1-0.1,0.3-0.1,0.4,0s0.1,0.3,0,0.4s-0.3,0.1-0.4,0S121,20.3,121.1,20.2z"/>
		</g>
		<g>
			<path class="st18" d="M117.6,12.9c0.1-0.2,0.4-0.2,0.5,0c0.2,0.1,0.2,0.4,0,0.6c-0.1,0.2-0.4,0.2-0.5,0
				C117.4,13.3,117.4,13,117.6,12.9z"/>
		</g>
		<g>
			<path class="st18" d="M115,13.7c0.1-0.1,0.3-0.1,0.4,0s0.1,0.3,0,0.4c-0.1,0.1-0.3,0.1-0.4,0C114.9,13.9,114.9,13.8,115,13.7z"/>
		</g>
		<g>
			<path class="st18" d="M106.6,13.1c0.1-0.2,0.4-0.2,0.5,0c0.2,0.1,0.2,0.4,0,0.5c-0.1,0.2-0.4,0.2-0.5,0
				C106.4,13.4,106.4,13.2,106.6,13.1z"/>
		</g>
		<g>
			<path class="st18" d="M105.8,11c0.1-0.1,0.3-0.1,0.4,0s0.1,0.3,0,0.4c-0.1,0.1-0.3,0.1-0.4,0C105.7,11.3,105.7,11.1,105.8,11z"/>
		</g>
		<g>
			<path class="st18" d="M97.5,11.3c0.1-0.1,0.1-0.1,0.2,0s0.1,0.1,0,0.2c-0.1,0.1-0.1,0.1-0.2,0S97.4,11.3,97.5,11.3z"/>
		</g>
		<g>
			<path class="st18" d="M96.7,3.9c0.1-0.1,0.2-0.1,0.3,0c0.1,0.1,0.1,0.2,0,0.3c-0.1,0.1-0.2,0.1-0.3,0C96.6,4.1,96.6,4,96.7,3.9z"
				/>
		</g>
		<g>
			<path class="st18" d="M111.2,58.1c0.1-0.1,0.3-0.1,0.4,0s0.1,0.3,0,0.4c-0.1,0.1-0.3,0.1-0.4,0S111.1,58.3,111.2,58.1z"/>
		</g>
		<g>
			<path class="st18" d="M86.6,3.7c0.1-0.1,0.3-0.1,0.5,0c0.1,0.1,0.1,0.3,0,0.5c-0.1,0.1-0.3,0.1-0.4,0C86.4,4,86.4,3.8,86.6,3.7z"
				/>
		</g>
		<g>
			<path class="st18" d="M96.6,24.1c0.1-0.1,0.2-0.1,0.3,0c0.1,0.1,0.1,0.3,0,0.3c-0.1,0.1-0.3,0.1-0.3,0
				C96.6,24.4,96.6,24.2,96.6,24.1z"/>
		</g>
		<g>
			<path class="st18" d="M101.1,24.6c0.1-0.1,0.3-0.1,0.4,0s0.1,0.3,0,0.4s-0.3,0.1-0.4,0S101,24.7,101.1,24.6z"/>
		</g>
		<g>
			<path class="st18" d="M99.9,34.1c0.1-0.1,0.3-0.1,0.4,0s0.1,0.3,0,0.4c-0.1,0.1-0.3,0.1-0.4,0S99.8,34.2,99.9,34.1z"/>
		</g>
		<g>
			<path class="st18" d="M43.5,114.3c0.1-0.1,0.1-0.1,0.2,0c0.1,0.1,0.1,0.1,0,0.2s-0.1,0.1-0.2,0C43.5,114.5,43.5,114.4,43.5,114.3
				z"/>
		</g>
		<g>
			<path class="st18" d="M54,111.8c0-0.1,0.1-0.1,0.2,0c0.1,0,0.1,0.1,0,0.2c0,0.1-0.1,0.1-0.2,0C54,111.9,54,111.8,54,111.8z"/>
		</g>
		<g>
			<path class="st18" d="M54.2,117.6c0.1-0.1,0.2-0.1,0.3,0s0.1,0.2,0,0.3c-0.1,0.1-0.2,0.1-0.3,0C54.1,117.8,54.1,117.6,54.2,117.6
				z"/>
		</g>
		<g>
			<path class="st18" d="M53.2,122c0.1-0.1,0.2-0.1,0.2,0c0.1,0.1,0.1,0.2,0,0.2c-0.1,0.1-0.2,0.1-0.2,0
				C53.1,122.1,53.1,122,53.2,122z"/>
		</g>
		<g>
			<path class="st18" d="M53.8,127.3c0.1-0.1,0.2-0.1,0.3,0s0.1,0.2,0,0.3c-0.1,0.1-0.2,0.1-0.3,0C53.7,127.5,53.7,127.3,53.8,127.3
				z"/>
		</g>
		<g>
			<path class="st18" d="M60.6,129.8c0.1-0.1,0.3-0.1,0.4,0c0.1,0.1,0.1,0.3,0,0.4c-0.1,0.1-0.3,0.1-0.4,0
				C60.5,130.1,60.5,129.9,60.6,129.8z"/>
		</g>
		<g>
			<path class="st18" d="M57.9,133.1c0.1-0.1,0.1-0.1,0.2,0c0.1,0.1,0.1,0.1,0,0.2c-0.1,0.1-0.1,0.1-0.2,0S57.8,133.1,57.9,133.1z"
				/>
		</g>
		<g>
			<path class="st18" d="M51.8,135.3c0.1-0.1,0.2-0.1,0.3,0s0.1,0.2,0,0.3s-0.2,0.1-0.3,0S51.7,135.4,51.8,135.3z"/>
		</g>
		<g>
			<path class="st18" d="M50.7,128.7c0.1-0.1,0.4-0.2,0.5,0c0.1,0.1,0.1,0.4,0,0.5s-0.4,0.2-0.5,0C50.6,129.1,50.6,128.9,50.7,128.7
				z"/>
		</g>
		<g>
			<path class="st18" d="M44.6,132.7c0.1-0.1,0.2-0.1,0.2,0c0.1,0.1,0.1,0.2,0,0.2c-0.1,0.1-0.2,0.1-0.2,0
				C44.6,132.8,44.6,132.7,44.6,132.7z"/>
		</g>
		<g>
			<path class="st18" d="M42.3,128.4c0.1-0.1,0.4-0.1,0.5,0s0.1,0.4,0,0.5s-0.4,0.1-0.5,0C42.2,128.7,42.1,128.5,42.3,128.4z"/>
		</g>
		<g>
			<path class="st18" d="M42.9,123c0.1-0.1,0.3-0.1,0.4,0c0.1,0.1,0.1,0.3,0,0.4s-0.3,0.1-0.4,0S42.8,123.1,42.9,123z"/>
		</g>
		<g>
			<path class="st18" d="M36.2,125.4c0.1-0.1,0.4-0.2,0.5,0s0.2,0.4,0,0.5c-0.1,0.1-0.4,0.2-0.5,0C36.1,125.8,36.1,125.6,36.2,125.4
				z"/>
		</g>
		<g>
			<path class="st18" d="M33.2,121.4c0.1-0.1,0.1-0.1,0.2,0c0.1,0.1,0.1,0.1,0,0.2s-0.1,0.1-0.2,0C33.1,121.6,33.1,121.5,33.2,121.4
				z"/>
		</g>
		<g>
			<path class="st18" d="M20.7,58.6c0.1-0.1,0.3-0.1,0.4,0s0.1,0.3,0,0.4c-0.1,0.1-0.3,0.1-0.4,0C20.6,58.8,20.6,58.7,20.7,58.6z"/>
		</g>
		<g>
			<path class="st18" d="M98.7,98.8c0.1-0.1,0.1-0.1,0.2,0s0.1,0.1,0,0.2s-0.1,0.1-0.2,0C98.6,99,98.6,98.9,98.7,98.8z"/>
		</g>
		<g>
			<path class="st18" d="M10.4,59.2c0.1-0.1,0.2-0.1,0.2,0c0.1,0.1,0.1,0.2,0,0.2c-0.1,0.1-0.2,0.1-0.2,0
				C10.3,59.3,10.3,59.2,10.4,59.2z"/>
		</g>
		<g>
			<path class="st18" d="M85.5,103.9c0.1-0.1,0.3-0.1,0.4,0s0.1,0.3,0,0.4s-0.3,0.1-0.4,0C85.4,104.1,85.4,104,85.5,103.9z"/>
		</g>
		<g>
			<path class="st18" d="M88.4,91.4c0.1-0.1,0.2-0.1,0.3,0c0.1,0.1,0.1,0.2,0,0.3c-0.1,0.1-0.2,0.1-0.3,0
				C88.3,91.6,88.3,91.5,88.4,91.4z"/>
		</g>
		<g>
			<path class="st18" d="M81,88.8c0.1-0.1,0.3-0.1,0.4,0s0.1,0.3,0,0.4s-0.3,0.1-0.4,0C80.9,89.1,80.9,88.9,81,88.8z"/>
		</g>
		<g>
			<path class="st18" d="M75.1,83.7c0.1-0.2,0.4-0.2,0.5,0c0.1,0.1,0.2,0.4,0,0.5c-0.1,0.2-0.4,0.2-0.5,0C75,84.1,75,83.8,75.1,83.7
				z"/>
		</g>
		<g>
			<path class="st18" d="M94.8,70c0.1-0.1,0.3-0.1,0.4,0s0.1,0.3,0,0.4s-0.3,0.1-0.4,0C94.7,70.4,94.7,70.2,94.8,70z"/>
		</g>
		<g>
			<path class="st18" d="M98.6,76.8c0.1-0.1,0.2-0.1,0.2,0c0.1,0.1,0.1,0.2,0,0.2c-0.1,0.1-0.2,0.1-0.2,0
				C98.6,77,98.6,76.9,98.6,76.8z"/>
		</g>
		<g>
			<path class="st18" d="M104.9,66.7c0.1-0.1,0.2-0.1,0.3,0c0.1,0.1,0.1,0.2,0,0.3c-0.1,0.1-0.2,0.1-0.3,0
				C104.8,67,104.8,66.8,104.9,66.7z"/>
		</g>
		<g>
			<path class="st18" d="M105.4,74.5c0.1-0.1,0.4-0.1,0.5,0s0.1,0.4,0,0.5s-0.4,0.1-0.5,0S105.2,74.7,105.4,74.5z"/>
		</g>
		<g>
			<path class="st18" d="M109.2,71.7c0.1-0.1,0.2-0.1,0.3,0c0.1,0.1,0.1,0.2,0,0.3c-0.1,0.1-0.2,0.1-0.3,0
				C109.1,71.9,109.1,71.7,109.2,71.7z"/>
		</g>
		<g>
			<path class="st18" d="M97.2,31.9c0.2-0.2,0.4-0.2,0.6,0c0.2,0.2,0.2,0.4,0,0.6c-0.1,0.2-0.4,0.2-0.6,0S97,32.1,97.2,31.9z"/>
		</g>
		<g>
			<path class="st18" d="M46.9,31c0.1-0.1,0.4-0.2,0.5,0c0.1,0.1,0.2,0.4,0,0.5c-0.1,0.1-0.4,0.2-0.5,0C46.8,31.4,46.8,31.2,46.9,31
				z"/>
		</g>
		<g>
			<path class="st18" d="M52.6,30.9c0.1-0.1,0.3-0.1,0.4,0c0.1,0.1,0.1,0.3,0,0.4s-0.3,0.1-0.4,0C52.6,31.2,52.5,31,52.6,30.9z"/>
		</g>
		<g>
			<path class="st18" d="M19.7,58.8c0.1-0.1,0.2-0.1,0.3,0c0.1,0.1,0.1,0.2,0,0.3s-0.2,0.1-0.3,0C19.6,59.1,19.6,58.9,19.7,58.8z"/>
		</g>
		<g>
			<path class="st18" d="M11.2,62.3c0.1-0.1,0.2-0.1,0.3,0s0.1,0.2,0,0.3s-0.2,0.1-0.3,0C11.1,62.5,11.1,62.3,11.2,62.3z"/>
		</g>
		<g>
			<path class="st18" d="M5.3,67.3c0.1-0.1,0.1-0.1,0.2,0s0.1,0.1,0,0.2s-0.1,0.1-0.2,0C5.3,67.5,5.3,67.4,5.3,67.3z"/>
		</g>
		<g>
			<path class="st18" d="M9.6,74.5c0.1-0.1,0.2-0.1,0.2,0c0.1,0.1,0.1,0.2,0,0.2c-0.1,0.1-0.2,0.1-0.2,0C9.5,74.7,9.5,74.6,9.6,74.5
				z"/>
		</g>
		<g>
			<path class="st18" d="M8.8,87c0.1-0.1,0.3-0.1,0.4,0c0.1,0.1,0.1,0.3,0,0.4s-0.3,0.1-0.4,0C8.7,87.3,8.7,87.1,8.8,87z"/>
		</g>
		<g>
			<path class="st18" d="M20.4,85.3c0.1-0.1,0.2-0.1,0.3,0c0.1,0.1,0.1,0.2,0,0.3c-0.1,0.1-0.2,0.1-0.3,0
				C20.3,85.5,20.3,85.4,20.4,85.3z"/>
		</g>
		<g>
			<path class="st18" d="M11,130.7c0.1-0.1,0.3-0.1,0.4,0c0.1,0.1,0.1,0.3,0,0.4c-0.1,0.1-0.3,0.1-0.4,0
				C10.9,131,10.9,130.8,11,130.7z"/>
		</g>
		<g>
			<path class="st18" d="M19.1,132.2c0.1-0.1,0.4-0.2,0.5,0c0.1,0.1,0.2,0.4,0,0.5c-0.1,0.1-0.4,0.2-0.5,0
				C18.9,132.5,18.9,132.3,19.1,132.2z"/>
		</g>
		<g>
			<path class="st18" d="M25.9,136.5c0.1-0.1,0.3-0.1,0.4,0s0.1,0.3,0,0.4c-0.1,0.1-0.3,0.1-0.4,0C25.8,136.7,25.8,136.6,25.9,136.5
				z"/>
		</g>
		<g>
			<path class="st18" d="M29.4,148.8c0.1-0.1,0.2-0.1,0.3,0c0.1,0.1,0.1,0.2,0,0.3s-0.2,0.1-0.3,0C29.3,149,29.3,148.9,29.4,148.8z"
				/>
		</g>
		<g>
			<path class="st18" d="M35.6,143.3c0.1-0.1,0.2-0.1,0.3,0s0.1,0.2,0,0.3s-0.2,0.1-0.3,0S35.5,143.4,35.6,143.3z"/>
		</g>
		<g>
			<path class="st18" d="M37.9,149.5c0.1-0.2,0.4-0.2,0.5,0c0.2,0.1,0.2,0.4,0,0.5c-0.1,0.2-0.4,0.2-0.5,0
				C37.7,149.9,37.7,149.6,37.9,149.5z"/>
		</g>
		<g>
			<path class="st18" d="M43.9,146.2c0.1-0.1,0.3-0.1,0.5,0c0.1,0.1,0.1,0.3,0,0.5c-0.1,0.1-0.3,0.1-0.5,0
				C43.7,146.5,43.7,146.3,43.9,146.2z"/>
		</g>
		<g>
			<path class="st18" d="M43.3,157.4c0.1-0.1,0.2-0.1,0.2,0c0.1,0.1,0.1,0.2,0,0.2c-0.1,0.1-0.2,0.1-0.2,0
				C43.3,157.5,43.3,157.4,43.3,157.4z"/>
		</g>
		<g>
			<path class="st18" d="M50.1,146.3c0.1-0.1,0.3-0.1,0.4,0c0.1,0.1,0.1,0.3,0,0.4c-0.1,0.1-0.3,0.1-0.4,0
				C49.9,146.6,49.9,146.4,50.1,146.3z"/>
		</g>
		<g>
			<path class="st18" d="M51.4,158.6c0.1-0.1,0.3-0.1,0.4,0c0.1,0.1,0.1,0.3,0,0.4c-0.1,0.1-0.3,0.1-0.4,0S51.3,158.7,51.4,158.6z"
				/>
		</g>
		<g>
			<path class="st18" d="M58.2,157.2c0.1-0.1,0.2-0.1,0.2,0c0.1,0.1,0.1,0.2,0,0.2c-0.1,0.1-0.2,0.1-0.2,0
				C58.2,157.3,58.2,157.2,58.2,157.2z"/>
		</g>
		<g>
			<path class="st18" d="M58.6,161.9c0.1-0.1,0.2-0.1,0.3,0s0.1,0.2,0,0.3s-0.2,0.1-0.3,0C58.5,162.2,58.5,162,58.6,161.9z"/>
		</g>
		<g>
			<path class="st18" d="M64.6,155.8c0.1-0.2,0.4-0.2,0.5,0c0.2,0.1,0.2,0.4,0,0.5c-0.1,0.2-0.4,0.2-0.5,0
				C64.4,156.2,64.4,156,64.6,155.8z"/>
		</g>
		<g>
			<path class="st18" d="M69.9,165.1c0.1-0.1,0.2-0.1,0.2,0c0.1,0.1,0.1,0.2,0,0.2c-0.1,0.1-0.2,0.1-0.2,0
				C69.8,165.3,69.8,165.2,69.9,165.1z"/>
		</g>
		<g>
			<path class="st18" d="M75.8,161.8c0.1-0.1,0.2-0.1,0.3,0c0.1,0.1,0.1,0.2,0,0.3s-0.2,0.1-0.3,0S75.7,161.9,75.8,161.8z"/>
		</g>
		<g>
			<path class="st18" d="M84.2,162.2c0.1-0.1,0.3-0.1,0.4,0s0.1,0.3,0,0.4c-0.1,0.1-0.3,0.1-0.4,0C84,162.5,84,162.3,84.2,162.2z"/>
		</g>
		<g>
			<path class="st18" d="M85.3,167.3c0.1-0.1,0.3-0.1,0.4,0s0.1,0.3,0,0.4c-0.1,0.1-0.3,0.1-0.4,0C85.2,167.5,85.2,167.4,85.3,167.3
				z"/>
		</g>
		<g>
			<path class="st18" d="M89,173.9c0.1-0.1,0.3-0.1,0.5,0c0.1,0.1,0.1,0.3,0,0.5c-0.1,0.1-0.3,0.1-0.5,0
				C88.9,174.2,88.9,174,89,173.9z"/>
		</g>
		<g>
			<path class="st18" d="M95.1,165.4c0.1-0.1,0.3-0.1,0.5,0c0.1,0.1,0.1,0.3,0,0.5c-0.1,0.1-0.3,0.1-0.5,0
				C94.9,165.7,94.9,165.5,95.1,165.4z"/>
		</g>
		<g>
			<path class="st18" d="M85.1,164.7c0.1-0.1,0.2-0.1,0.3,0c0.1,0.1,0.1,0.2,0,0.3s-0.2,0.1-0.3,0C85,164.9,85,164.8,85.1,164.7z"/>
		</g>
		<g>
			<path class="st18" d="M76.7,164.5c0.1-0.1,0.2-0.1,0.2,0c0.1,0.1,0.1,0.2,0,0.2c-0.1,0.1-0.2,0.1-0.2,0
				C76.7,164.6,76.7,164.5,76.7,164.5z"/>
		</g>
		<g>
			<path class="st18" d="M79.6,151.9c0.1-0.1,0.2-0.1,0.3,0c0.1,0.1,0.1,0.2,0,0.3s-0.2,0.1-0.3,0C79.5,152.1,79.5,152,79.6,151.9z"
				/>
		</g>
		<g>
			<path class="st18" d="M74.9,147.5c0.1-0.1,0.2-0.1,0.2,0c0.1,0.1,0.1,0.2,0,0.2c-0.1,0.1-0.2,0.1-0.2,0
				C74.9,147.7,74.8,147.6,74.9,147.5z"/>
		</g>
		<g>
			<path class="st18" d="M63.7,146.9c0.1-0.1,0.2-0.1,0.3,0s0.1,0.2,0,0.3s-0.2,0.1-0.3,0C63.6,147.1,63.6,147,63.7,146.9z"/>
		</g>
		<g>
			<path class="st18" d="M58.6,150c0.1-0.1,0.3-0.1,0.4,0c0.1,0.1,0.1,0.3,0,0.4c-0.1,0.1-0.3,0.1-0.4,0
				C58.6,150.3,58.5,150.1,58.6,150z"/>
		</g>
		<g>
			<path class="st18" d="M57.4,143.9c0.1-0.1,0.3-0.1,0.5,0c0.1,0.1,0.1,0.3,0,0.5c-0.1,0.1-0.3,0.1-0.5,0
				C57.3,144.3,57.3,144.1,57.4,143.9z"/>
		</g>
		<g>
			<path class="st18" d="M50.2,140.6c0.1-0.1,0.2-0.1,0.3,0s0.1,0.2,0,0.3s-0.2,0.1-0.3,0C50.1,140.8,50.1,140.7,50.2,140.6z"/>
		</g>
		<g>
			<path class="st18" d="M47.9,134.6c0.1-0.2,0.4-0.2,0.5,0c0.2,0.1,0.2,0.4,0,0.5c-0.1,0.2-0.4,0.2-0.5,0
				C47.8,135,47.8,134.7,47.9,134.6z"/>
		</g>
		<g>
			<path class="st18" d="M47.3,125.6c0.1-0.1,0.3-0.1,0.4,0c0.1,0.1,0.1,0.3,0,0.4s-0.3,0.1-0.4,0C47.2,125.9,47.2,125.7,47.3,125.6
				z"/>
		</g>
		<g>
			<path class="st18" d="M41.1,126.3c0.1-0.1,0.4-0.2,0.5,0c0.1,0.1,0.2,0.4,0,0.5c-0.1,0.1-0.4,0.2-0.5,0
				C41,126.6,41,126.4,41.1,126.3z"/>
		</g>
		<g>
			<path class="st18" d="M39,120.7c0.1-0.1,0.3-0.1,0.4,0c0.1,0.1,0.1,0.3,0,0.4s-0.3,0.1-0.4,0C38.9,121,38.9,120.9,39,120.7z"/>
		</g>
		<g>
			<path class="st18" d="M27.8,121.9c0.1-0.1,0.3-0.1,0.5,0c0.1,0.1,0.1,0.3,0,0.5c-0.1,0.1-0.3,0.1-0.5,0
				C27.6,122.2,27.6,122,27.8,121.9z"/>
		</g>
		<g>
			<path class="st18" d="M57.6,107.2c0.1-0.1,0.4-0.2,0.5,0c0.1,0.1,0.2,0.4,0,0.5c-0.1,0.1-0.4,0.2-0.5,0
				C57.4,107.6,57.4,107.3,57.6,107.2z"/>
		</g>
		<g>
			<path class="st18" d="M61.9,107.9c0.1-0.1,0.4-0.1,0.5,0s0.1,0.4,0,0.5s-0.4,0.1-0.5,0C61.8,108.2,61.8,108,61.9,107.9z"/>
		</g>
		<g>
			<path class="st18" d="M75.8,111.8c0.1-0.1,0.2-0.1,0.2,0c0.1,0.1,0.1,0.2,0,0.2c-0.1,0.1-0.2,0.1-0.2,0
				C75.8,112,75.8,111.9,75.8,111.8z"/>
		</g>
		<g>
			<path class="st18" d="M76.3,121.5c0.1-0.1,0.4-0.1,0.5,0s0.1,0.4,0,0.5s-0.4,0.1-0.5,0C76.2,121.9,76.2,121.7,76.3,121.5z"/>
		</g>
		<g>
			<path class="st18" d="M85.5,119.8c0.1-0.1,0.2-0.1,0.3,0c0.1,0.1,0.1,0.2,0,0.3c-0.1,0.1-0.2,0.1-0.3,0
				C85.4,120,85.4,119.9,85.5,119.8z"/>
		</g>
		<g>
			<path class="st18" d="M88.4,122.1c0.1-0.1,0.3-0.1,0.4,0s0.1,0.3,0,0.4s-0.3,0.1-0.4,0S88.3,122.2,88.4,122.1z"/>
		</g>
		<g>
			<path class="st18" d="M96.5,123.1c0.1-0.2,0.4-0.2,0.5,0c0.2,0.1,0.2,0.4,0,0.5c-0.1,0.2-0.4,0.2-0.5,0
				C96.3,123.5,96.3,123.3,96.5,123.1z"/>
		</g>
		<g>
			<path class="st18" d="M92.9,131.7c0.1-0.2,0.4-0.2,0.6,0s0.2,0.4,0,0.6c-0.2,0.2-0.4,0.2-0.6,0C92.8,132.1,92.8,131.9,92.9,131.7
				z"/>
		</g>
		<g>
			<path class="st18" d="M94.4,138.4c0.1-0.1,0.2-0.1,0.3,0c0.1,0.1,0.1,0.2,0,0.3s-0.2,0.1-0.3,0C94.4,138.7,94.3,138.5,94.4,138.4
				z"/>
		</g>
		<g>
			<path class="st18" d="M86.8,136.8c0.1-0.1,0.3-0.1,0.4,0s0.1,0.3,0,0.4c-0.1,0.1-0.3,0.1-0.4,0C86.7,137.1,86.7,136.9,86.8,136.8
				z"/>
		</g>
		<g>
			<path class="st18" d="M83.1,149.7c0.1-0.1,0.3-0.1,0.4,0s0.1,0.3,0,0.4c-0.1,0.1-0.3,0.1-0.4,0C83,150,83,149.8,83.1,149.7z"/>
		</g>
		<g>
			<path class="st18" d="M73.2,146.4c0.1-0.1,0.3-0.1,0.4,0s0.1,0.3,0,0.4c-0.1,0.1-0.3,0.1-0.4,0C73.1,146.6,73.1,146.5,73.2,146.4
				z"/>
		</g>
		<g>
			<path class="st18" d="M66.8,153.8c0.1-0.1,0.3-0.1,0.4,0s0.1,0.3,0,0.4c-0.1,0.1-0.3,0.1-0.4,0C66.7,154.1,66.7,153.9,66.8,153.8
				z"/>
		</g>
		<g>
			<path class="st18" d="M59.2,154.2c0.1-0.1,0.3-0.1,0.5,0c0.1,0.1,0.1,0.3,0,0.5c-0.1,0.1-0.3,0.1-0.5,0
				C59.1,154.6,59.1,154.4,59.2,154.2z"/>
		</g>
		<g>
			<path class="st18" d="M51.5,146.9c0.1-0.1,0.3-0.1,0.4,0c0.1,0.1,0.1,0.3,0,0.4c-0.1,0.1-0.3,0.1-0.4,0
				C51.4,147.2,51.4,147,51.5,146.9z"/>
		</g>
		<g>
			<path class="st18" d="M46.2,146.1c0.1-0.1,0.2-0.1,0.3,0s0.1,0.2,0,0.3s-0.2,0.1-0.3,0C46.2,146.4,46.1,146.2,46.2,146.1z"/>
		</g>
		<g>
			<path class="st18" d="M42.5,154.5c0.1-0.1,0.4-0.2,0.5,0c0.1,0.1,0.2,0.4,0,0.5c-0.1,0.2-0.4,0.2-0.5,0
				C42.4,154.9,42.4,154.7,42.5,154.5z"/>
		</g>
		<g>
			<path class="st18" d="M37.6,149.6c0.1-0.1,0.3-0.1,0.4,0c0.1,0.1,0.1,0.3,0,0.4c-0.1,0.1-0.3,0.1-0.4,0
				C37.5,149.9,37.5,149.7,37.6,149.6z"/>
		</g>
		<g>
			<path class="st18" d="M32.8,146.5c0.1-0.1,0.2-0.1,0.2,0c0.1,0.1,0.1,0.2,0,0.2c-0.1,0.1-0.2,0.1-0.2,0
				C32.7,146.7,32.7,146.6,32.8,146.5z"/>
		</g>
		<g>
			<path class="st18" d="M44.7,161.6c0.1-0.1,0.2-0.1,0.3,0s0.1,0.2,0,0.3s-0.2,0.1-0.3,0C44.6,161.8,44.6,161.6,44.7,161.6z"/>
		</g>
		<g>
			<path class="st18" d="M49.9,163.4c0.1-0.1,0.3-0.1,0.4,0c0.1,0.1,0.1,0.3,0,0.4c-0.1,0.1-0.3,0.1-0.4,0
				C49.8,163.7,49.8,163.6,49.9,163.4z"/>
		</g>
		<g>
			<path class="st18" d="M56.9,165.6c0.1-0.1,0.3-0.1,0.4,0c0.1,0.1,0.1,0.3,0,0.4c-0.1,0.1-0.3,0.1-0.4,0S56.8,165.7,56.9,165.6z"
				/>
		</g>
		<g>
			<path class="st18" d="M59.2,161.6c0.1-0.1,0.4-0.1,0.5,0s0.1,0.4,0,0.5s-0.4,0.1-0.5,0C59.1,162,59.1,161.8,59.2,161.6z"/>
		</g>
		<g>
			<path class="st18" d="M62.8,164.2c0.1-0.2,0.4-0.2,0.5,0c0.2,0.1,0.2,0.4,0,0.5c-0.1,0.2-0.4,0.2-0.5,0
				C62.6,164.6,62.6,164.4,62.8,164.2z"/>
		</g>
		<g>
			<path class="st18" d="M66.2,166.6c0.1-0.1,0.1-0.1,0.2,0s0.1,0.1,0,0.2c-0.1,0.1-0.1,0.1-0.2,0C66.2,166.7,66.2,166.6,66.2,166.6
				z"/>
		</g>
		<g>
			<path class="st18" d="M70,153.3c0.1-0.1,0.3-0.1,0.5,0c0.1,0.1,0.1,0.3,0,0.5c-0.1,0.1-0.3,0.1-0.5,0
				C69.9,153.6,69.9,153.4,70,153.3z"/>
		</g>
		<g>
			<path class="st18" d="M78,153c0.2-0.2,0.4-0.2,0.6,0s0.2,0.4,0,0.6c-0.1,0.2-0.4,0.2-0.6,0C77.9,153.5,77.9,153.2,78,153z"/>
		</g>
		<g>
			<path class="st18" d="M86.4,160.1c0.1-0.1,0.2-0.1,0.3,0c0.1,0.1,0.1,0.2,0,0.3s-0.2,0.1-0.3,0C86.3,160.3,86.3,160.2,86.4,160.1
				z"/>
		</g>
		<g>
			<path class="st18" d="M91.5,152.3c0.1-0.1,0.1-0.1,0.2,0s0.1,0.1,0,0.2c-0.1,0.1-0.1,0.1-0.2,0C91.5,152.5,91.5,152.4,91.5,152.3
				z"/>
		</g>
		<g>
			<path class="st18" d="M92.2,148.9c0.1-0.1,0.2-0.1,0.3,0c0.1,0.1,0.1,0.2,0,0.3s-0.2,0.1-0.3,0C92.1,149.1,92.1,149,92.2,148.9z"
				/>
		</g>
		<g>
			<path class="st18" d="M102.7,148.8c0.1-0.1,0.3-0.1,0.4,0s0.1,0.3,0,0.4c-0.1,0.1-0.3,0.1-0.4,0
				C102.6,149.1,102.6,148.9,102.7,148.8z"/>
		</g>
		<g>
			<path class="st18" d="M99.8,142c0.1-0.1,0.2-0.1,0.2,0c0.1,0.1,0.1,0.2,0,0.2c-0.1,0.1-0.2,0.1-0.2,0
				C99.7,142.1,99.7,142,99.8,142z"/>
		</g>
		<g>
			<path class="st18" d="M101.9,139.7c0.1-0.1,0.2-0.1,0.3,0c0.1,0.1,0.1,0.2,0,0.3s-0.2,0.1-0.3,0
				C101.8,140,101.8,139.8,101.9,139.7z"/>
		</g>
		<g>
			<path class="st18" d="M104.7,130.2c0.1-0.1,0.2-0.1,0.3,0c0.1,0.1,0.1,0.2,0,0.3s-0.2,0.1-0.3,0
				C104.6,130.4,104.6,130.2,104.7,130.2z"/>
		</g>
		<g>
			<path class="st18" d="M95.5,127.7c0.1-0.1,0.2-0.1,0.2,0c0.1,0.1,0.1,0.2,0,0.2c-0.1,0.1-0.2,0.1-0.2,0
				C95.4,127.8,95.4,127.7,95.5,127.7z"/>
		</g>
		<g>
			<path class="st18" d="M92.7,118c0.1-0.1,0.4-0.2,0.5,0c0.1,0.1,0.2,0.4,0,0.5c-0.1,0.1-0.4,0.2-0.5,0
				C92.5,118.4,92.5,118.1,92.7,118z"/>
		</g>
		<g>
			<path class="st18" d="M86.5,126.1c0.1-0.1,0.2-0.1,0.3,0c0.1,0.1,0.1,0.2,0,0.3c-0.1,0.1-0.2,0.1-0.3,0
				C86.4,126.3,86.4,126.2,86.5,126.1z"/>
		</g>
		<g>
			<path class="st18" d="M85.4,124.4c0.1-0.1,0.2-0.1,0.2,0c0.1,0.1,0.1,0.2,0,0.2c-0.1,0.1-0.2,0.1-0.2,0
				C85.3,124.6,85.3,124.5,85.4,124.4z"/>
		</g>
		<g>
			<path class="st18" d="M81,119.1c0.1-0.1,0.3-0.1,0.4,0s0.1,0.3,0,0.5c-0.1,0.1-0.3,0.1-0.4,0C80.8,119.5,80.8,119.3,81,119.1z"/>
		</g>
		<g>
			<path class="st18" d="M77.5,118.2c0.1-0.1,0.3-0.1,0.4,0s0.1,0.3,0,0.4s-0.3,0.1-0.4,0S77.4,118.3,77.5,118.2z"/>
		</g>
		<g>
			<path class="st18" d="M60.4,108c0.1-0.1,0.3-0.1,0.5,0c0.1,0.1,0.1,0.3,0,0.5c-0.1,0.1-0.3,0.1-0.5,0
				C60.3,108.3,60.3,108.1,60.4,108z"/>
		</g>
		<g>
			<path class="st18" d="M56.8,109c0.1-0.2,0.4-0.2,0.5,0c0.2,0.1,0.2,0.4,0,0.5c-0.1,0.2-0.4,0.2-0.5,0
				C56.6,109.4,56.6,109.1,56.8,109z"/>
		</g>
		<g>
			<path class="st18" d="M51.3,102.5c0.1-0.1,0.2-0.1,0.2,0c0.1,0.1,0.1,0.2,0,0.2c-0.1,0.1-0.2,0.1-0.2,0S51.3,102.5,51.3,102.5z"
				/>
		</g>
		<g>
			<path class="st18" d="M117,98.4c0.1-0.1,0.2-0.1,0.3,0c0.1,0.1,0.1,0.2,0,0.3c-0.1,0.1-0.2,0.1-0.3,0
				C116.9,98.6,116.9,98.5,117,98.4z"/>
		</g>
		<g>
			<path class="st18" d="M110.4,93.4c0-0.1,0.1-0.1,0.2,0c0.1,0,0.1,0.1,0,0.2c0,0.1-0.1,0.1-0.2,0
				C110.4,93.5,110.4,93.4,110.4,93.4z"/>
		</g>
		<g>
			<path class="st18" d="M106.1,97.3c0.1-0.1,0.3-0.1,0.4,0s0.1,0.3,0,0.4s-0.3,0.1-0.4,0C106,97.7,106,97.5,106.1,97.3z"/>
		</g>
		<g>
			<path class="st18" d="M102.1,87c0.1-0.1,0.4-0.2,0.5,0c0.1,0.1,0.2,0.4,0,0.5c-0.1,0.2-0.4,0.2-0.5,0C102,87.4,102,87.1,102.1,87
				z"/>
		</g>
		<g>
			<path class="st18" d="M97.2,91.3c0.1-0.1,0.1-0.1,0.2,0s0.1,0.1,0,0.2s-0.1,0.1-0.2,0C97.1,91.5,97.1,91.4,97.2,91.3z"/>
		</g>
		<g>
			<path class="st18" d="M93.3,91.1c0.1-0.1,0.2-0.1,0.2,0c0.1,0.1,0.1,0.2,0,0.2c-0.1,0.1-0.2,0.1-0.2,0
				C93.3,91.3,93.3,91.2,93.3,91.1z"/>
		</g>
		<g>
			<path class="st18" d="M91.3,90.8c0.1-0.1,0.2-0.1,0.2,0c0.1,0.1,0.1,0.2,0,0.2c-0.1,0.1-0.2,0.1-0.2,0
				C91.2,91,91.2,90.9,91.3,90.8z"/>
		</g>
		<g>
			<path class="st18" d="M87,96c0.1-0.1,0.3-0.1,0.4,0s0.1,0.3,0,0.4s-0.3,0.1-0.4,0S86.9,96.1,87,96z"/>
		</g>
		<g>
			<path class="st18" d="M91.5,98.5c0.1-0.1,0.3-0.1,0.4,0s0.1,0.3,0,0.4s-0.3,0.1-0.4,0S91.4,98.6,91.5,98.5z"/>
		</g>
		<g>
			<path class="st18" d="M104.6,91.7c0.1-0.2,0.4-0.2,0.5,0c0.1,0.1,0.2,0.4,0,0.5c-0.1,0.1-0.4,0.2-0.5,0
				C104.5,92.1,104.5,91.8,104.6,91.7z"/>
		</g>
		<g>
			<path class="st18" d="M108.5,97c0.1-0.1,0.2-0.1,0.3,0c0.1,0.1,0.1,0.2,0,0.3c-0.1,0.1-0.2,0.1-0.3,0
				C108.4,97.2,108.4,97.1,108.5,97z"/>
		</g>
		<g>
			<path class="st18" d="M110.8,99.9c0.1-0.1,0.2-0.1,0.3,0c0.1,0.1,0.1,0.2,0,0.3c-0.1,0.1-0.2,0.1-0.3,0
				C110.7,100.1,110.7,100,110.8,99.9z"/>
		</g>
		<g>
			<path class="st18" d="M119.6,100c0.1-0.1,0.3-0.1,0.4,0s0.1,0.3,0,0.4s-0.3,0.1-0.4,0S119.5,100.1,119.6,100z"/>
		</g>
		<g>
			<path class="st18" d="M42.6,114.5c0.1-0.1,0.3-0.1,0.4,0c0.1,0.1,0.1,0.3,0,0.4s-0.3,0.1-0.4,0C42.5,114.7,42.5,114.6,42.6,114.5
				z"/>
		</g>
		<g>
			<path class="st18" d="M45.9,114c0.1-0.1,0.3-0.1,0.4,0c0.1,0.1,0.1,0.3,0,0.4s-0.3,0.1-0.4,0S45.8,114.1,45.9,114z"/>
		</g>
		<g>
			<path class="st18" d="M56.2,113.3c0.1-0.1,0.3-0.1,0.5,0c0.1,0.1,0.1,0.3,0,0.5c-0.1,0.1-0.3,0.1-0.5,0
				C56.1,113.7,56.1,113.5,56.2,113.3z"/>
		</g>
		<g>
			<path class="st18" d="M59,112c0.1-0.1,0.2-0.1,0.3,0s0.1,0.2,0,0.3c-0.1,0.1-0.2,0.1-0.3,0C58.9,112.2,58.9,112,59,112z"/>
		</g>
		<g>
			<path class="st18" d="M64.7,126.5c0.1-0.1,0.3-0.1,0.5,0c0.1,0.1,0.1,0.3,0,0.5c-0.1,0.1-0.3,0.1-0.5,0
				C64.6,126.8,64.6,126.6,64.7,126.5z"/>
		</g>
		<g>
			<path class="st18" d="M70.2,128.5c0.1-0.1,0.3-0.1,0.4,0s0.1,0.3,0,0.4c-0.1,0.1-0.3,0.1-0.4,0C70.1,128.8,70.1,128.6,70.2,128.5
				z"/>
		</g>
		<g>
			<path class="st18" d="M80.3,128.3c0.1-0.1,0.2-0.1,0.3,0c0.1,0.1,0.1,0.2,0,0.3s-0.2,0.1-0.3,0C80.2,128.6,80.2,128.4,80.3,128.3
				z"/>
		</g>
		<g>
			<path class="st18" d="M87.1,127.9c0.1-0.1,0.2-0.1,0.3,0c0.1,0.1,0.1,0.2,0,0.3c-0.1,0.1-0.2,0.1-0.3,0
				C87,128.2,87,128,87.1,127.9z"/>
		</g>
		<g>
			<path class="st18" d="M91.4,128.1c0.1-0.2,0.4-0.2,0.5,0c0.2,0.2,0.2,0.4,0,0.6c-0.1,0.2-0.4,0.2-0.5,0
				C91.3,128.5,91.3,128.2,91.4,128.1z"/>
		</g>
		<g>
			<path class="st18" d="M94.1,129.9c0.1-0.1,0.4-0.1,0.5,0s0.1,0.4,0,0.5s-0.4,0.1-0.5,0C94,130.2,94,130,94.1,129.9z"/>
		</g>
		<g>
			<path class="st18" d="M92.3,124.1c0.1-0.1,0.3-0.1,0.4,0s0.1,0.3,0,0.4s-0.3,0.1-0.4,0C92.2,124.4,92.2,124.2,92.3,124.1z"/>
		</g>
		<g>
			<path class="st18" d="M89.3,126.1c0.1-0.2,0.4-0.2,0.5,0c0.2,0.2,0.2,0.4,0,0.5c-0.1,0.2-0.4,0.2-0.5,0
				C89.1,126.5,89.1,126.3,89.3,126.1z"/>
		</g>
		<g>
			<path class="st18" d="M81.2,128.3c0.1-0.1,0.2-0.1,0.3,0c0.1,0.1,0.1,0.2,0,0.3s-0.2,0.1-0.3,0C81.1,128.5,81.1,128.4,81.2,128.3
				z"/>
		</g>
		<g>
			<path class="st18" d="M79.4,117.5c0.1-0.1,0.2-0.1,0.2,0c0.1,0.1,0.1,0.2,0,0.2c-0.1,0.1-0.2,0.1-0.2,0S79.4,117.5,79.4,117.5z"
				/>
		</g>
		<g>
			<path class="st18" d="M75.8,116.3c0.1-0.1,0.3-0.1,0.4,0s0.1,0.3,0,0.4s-0.3,0.1-0.4,0C75.7,116.6,75.7,116.4,75.8,116.3z"/>
		</g>
		<g>
			<path class="st18" d="M65.9,109.5c0.1-0.1,0.2-0.1,0.2,0c0.1,0.1,0.1,0.2,0,0.2c-0.1,0.1-0.2,0.1-0.2,0
				C65.8,109.7,65.8,109.6,65.9,109.5z"/>
		</g>
		<g>
			<path class="st18" d="M57.6,107.3c0.1-0.1,0.3-0.1,0.5,0c0.1,0.1,0.1,0.3,0,0.5c-0.1,0.1-0.3,0.1-0.5,0
				C57.4,107.7,57.4,107.5,57.6,107.3z"/>
		</g>
		<g>
			<path class="st18" d="M104.6,77.8c0.1-0.1,0.3-0.1,0.4,0s0.1,0.3,0,0.4s-0.3,0.1-0.4,0C104.4,78.1,104.4,78,104.6,77.8z"/>
		</g>
		<g>
			<path class="st18" d="M104.1,78.8c0.1-0.1,0.2-0.1,0.3,0c0.1,0.1,0.1,0.2,0,0.3c-0.1,0.1-0.2,0.1-0.3,0
				C104.1,79,104,78.9,104.1,78.8z"/>
		</g>
		<g>
			<path class="st18" d="M29.7,31.6c0.1-0.1,0.2-0.1,0.3,0c0.1,0.1,0.1,0.2,0,0.3c-0.1,0.1-0.2,0.1-0.3,0
				C29.7,31.8,29.7,31.7,29.7,31.6z"/>
		</g>
		<g>
			<path class="st18" d="M52.1,105.9c0.1-0.1,0.3-0.1,0.4,0c0.1,0.1,0.1,0.3,0,0.4s-0.3,0.1-0.4,0C52,106.2,52,106,52.1,105.9z"/>
		</g>
		<g>
			<path class="st18" d="M57.2,107.4c0.1-0.1,0.3-0.1,0.4,0c0.1,0.1,0.1,0.3,0,0.4s-0.3,0.1-0.4,0C57,107.7,57,107.5,57.2,107.4z"/>
		</g>
		<g>
			<path class="st18" d="M54.8,121.9c0.1-0.1,0.4-0.1,0.5,0s0.1,0.4,0,0.5s-0.4,0.1-0.5,0C54.6,122.3,54.6,122.1,54.8,121.9z"/>
		</g>
		<g>
			<path class="st18" d="M71.1,126c0-0.1,0.1-0.1,0.2,0c0.1,0,0.1,0.1,0,0.2c0,0.1-0.1,0.1-0.2,0C71.1,126.2,71.1,126.1,71.1,126z"
				/>
		</g>
		<g>
			<path class="st18" d="M121.3,6.6c0.1-0.1,0.3-0.1,0.5,0c0.1,0.1,0.1,0.3,0,0.5c-0.1,0.1-0.3,0.1-0.5,0
				C121.2,6.9,121.2,6.7,121.3,6.6z"/>
		</g>
		<g>
			<path class="st18" d="M112.8,37.7c0.1-0.1,0.2-0.1,0.3,0c0.1,0.1,0.1,0.2,0,0.3s-0.2,0.1-0.3,0S112.7,37.8,112.8,37.7z"/>
		</g>
		<g>
			<path class="st18" d="M117.5,42.1c0.1-0.1,0.2-0.1,0.2,0c0.1,0.1,0.1,0.2,0,0.2c-0.1,0.1-0.2,0.1-0.2,0
				C117.4,42.2,117.4,42.1,117.5,42.1z"/>
		</g>
		<g>
			<path class="st18" d="M124.1,47.3c0.1-0.1,0.2-0.1,0.2,0c0.1,0.1,0.1,0.2,0,0.2c-0.1,0.1-0.2,0.1-0.2,0
				C124.1,47.5,124.1,47.4,124.1,47.3z"/>
		</g>
		<g>
			<path class="st18" d="M133.5,42.7c0.1-0.1,0.2-0.1,0.3,0s0.1,0.2,0,0.3s-0.2,0.1-0.3,0C133.4,43,133.4,42.8,133.5,42.7z"/>
		</g>
		<g>
			<path class="st18" d="M141.5,42.4c0.1-0.1,0.3-0.1,0.4,0c0.1,0.1,0.1,0.3,0,0.4c-0.1,0.1-0.3,0.1-0.4,0
				C141.4,42.7,141.4,42.5,141.5,42.4z"/>
		</g>
		<g>
			<path class="st18" d="M149.6,44.8c0.1-0.1,0.3-0.1,0.4,0c0.1,0.1,0.1,0.3,0,0.4c-0.1,0.1-0.3,0.1-0.4,0
				C149.5,45.2,149.5,45,149.6,44.8z"/>
		</g>
		<g>
			<path class="st18" d="M157.3,49.1c0.1-0.1,0.2-0.1,0.3,0s0.1,0.2,0,0.3s-0.2,0.1-0.3,0C157.2,49.4,157.2,49.2,157.3,49.1z"/>
		</g>
		<g>
			<path class="st18" d="M156.6,35.1c0.1-0.1,0.2-0.1,0.3,0s0.1,0.2,0,0.3s-0.2,0.1-0.3,0S156.5,35.2,156.6,35.1z"/>
		</g>
		<g>
			<path class="st18" d="M147.6,38.9c0.1-0.1,0.3-0.1,0.5,0c0.1,0.1,0.1,0.3,0,0.5c-0.1,0.1-0.3,0.1-0.5,0
				C147.5,39.2,147.5,39,147.6,38.9z"/>
		</g>
		<g>
			<path class="st18" d="M149.6,41.5c0.1-0.1,0.3-0.1,0.5,0c0.1,0.1,0.1,0.3,0,0.5c-0.1,0.1-0.3,0.1-0.5,0
				C149.5,41.8,149.4,41.6,149.6,41.5z"/>
		</g>
		<g>
			<path class="st18" d="M153.9,50.2c0.1-0.1,0.4-0.1,0.5,0s0.1,0.4,0,0.5s-0.4,0.1-0.5,0C153.8,50.6,153.8,50.4,153.9,50.2z"/>
		</g>
		<g>
			<path class="st18" d="M146.7,47.9c0.1-0.1,0.2-0.1,0.2,0c0.1,0.1,0.1,0.2,0,0.2c-0.1,0.1-0.2,0.1-0.2,0
				C146.6,48,146.6,47.9,146.7,47.9z"/>
		</g>
		<g>
			<path class="st18" d="M131.3,48.9c0.1-0.1,0.2-0.1,0.3,0s0.1,0.2,0,0.3s-0.2,0.1-0.3,0C131.2,49.1,131.2,49,131.3,48.9z"/>
		</g>
		<g>
			<path class="st18" d="M170.3,96.9c0.1-0.1,0.3-0.1,0.4,0c0.1,0.1,0.1,0.3,0,0.4s-0.3,0.1-0.4,0C170.2,97.1,170.2,97,170.3,96.9z"
				/>
		</g>
		<g>
			<path class="st18" d="M171.7,98c0.1-0.1,0.2-0.1,0.3,0s0.1,0.2,0,0.3c-0.1,0.1-0.2,0.1-0.3,0C171.6,98.2,171.6,98.1,171.7,98z"/>
		</g>
		<g>
			<path class="st18" d="M178.4,94.4c0.1-0.1,0.3-0.1,0.5,0c0.1,0.1,0.1,0.3,0,0.5c-0.1,0.1-0.3,0.1-0.5,0
				C178.3,94.7,178.3,94.5,178.4,94.4z"/>
		</g>
		<g>
			<path class="st18" d="M174.5,93c0.1-0.1,0.2-0.1,0.3,0s0.1,0.2,0,0.3c-0.1,0.1-0.2,0.1-0.3,0C174.5,93.3,174.5,93.1,174.5,93z"/>
		</g>
		<g>
			<path class="st18" d="M132.8,48.3c0.1-0.1,0.3-0.1,0.5,0c0.1,0.1,0.1,0.3,0,0.5c-0.1,0.1-0.3,0.1-0.5,0
				C132.7,48.6,132.7,48.4,132.8,48.3z"/>
		</g>
		<g>
			<path class="st18" d="M121.6,46.8c0.1-0.1,0.3-0.1,0.4,0s0.1,0.3,0,0.4c-0.1,0.1-0.3,0.1-0.4,0C121.5,47.2,121.5,47,121.6,46.8z"
				/>
		</g>
		<g>
			<path class="st18" d="M122.7,42.3c0.1-0.1,0.3-0.1,0.4,0s0.1,0.3,0,0.4c-0.1,0.1-0.3,0.1-0.4,0C122.6,42.6,122.6,42.5,122.7,42.3
				z"/>
		</g>
		<g>
			<path class="st18" d="M119.2,35c0.1-0.2,0.4-0.2,0.5,0c0.2,0.1,0.2,0.4,0,0.6c-0.1,0.2-0.4,0.2-0.5,0
				C119.1,35.4,119.1,35.2,119.2,35z"/>
		</g>
		<g>
			<path class="st18" d="M116.6,35.8c0.1-0.1,0.3-0.1,0.4,0s0.1,0.3,0,0.4c-0.1,0.1-0.3,0.1-0.4,0C116.5,36.1,116.5,35.9,116.6,35.8
				z"/>
		</g>
		<g>
			<path class="st18" d="M108.2,35.2c0.1-0.2,0.4-0.2,0.5,0c0.2,0.1,0.2,0.4,0,0.5c-0.1,0.2-0.4,0.2-0.5,0
				C108.1,35.6,108.1,35.3,108.2,35.2z"/>
		</g>
		<g>
			<path class="st18" d="M107.5,33.2c0.1-0.1,0.3-0.1,0.4,0s0.1,0.3,0,0.4c-0.1,0.1-0.3,0.1-0.4,0C107.4,33.4,107.4,33.3,107.5,33.2
				z"/>
		</g>
		<g>
			<path class="st18" d="M123.1,10.3c0.1-0.1,0.2-0.1,0.3,0c0.1,0.1,0.1,0.3,0,0.3c-0.1,0.1-0.3,0.1-0.3,0
				C123,10.6,123,10.4,123.1,10.3z"/>
		</g>
		<g>
			<path class="st18" d="M127.6,10.8c0.1-0.1,0.3-0.1,0.4,0c0.1,0.1,0.1,0.3,0,0.4c-0.1,0.1-0.3,0.1-0.4,0
				C127.4,11.1,127.4,10.9,127.6,10.8z"/>
		</g>
		<g>
			<path class="st18" d="M126.3,20.3c0.1-0.1,0.3-0.1,0.4,0s0.1,0.3,0,0.4s-0.3,0.1-0.4,0C126.2,20.5,126.2,20.4,126.3,20.3z"/>
		</g>
		<g>
			<path class="st18" d="M135.2,21.3c0,0,0.1-0.1,0.2,0c0,0,0.1,0.1,0,0.2c0,0-0.1,0.1-0.2,0C135.2,21.5,135.2,21.4,135.2,21.3z"/>
		</g>
		<g>
			<path class="st18" d="M131.5,28.6c0.2-0.2,0.4-0.2,0.6,0c0.2,0.2,0.2,0.4,0,0.6s-0.4,0.2-0.6,0C131.4,29,131.4,28.7,131.5,28.6z"
				/>
		</g>
		<g>
			<path class="st18" d="M150.2,117.2c0.1-0.1,0.1-0.1,0.2,0c0.1,0.1,0.1,0.1,0,0.2s-0.1,0.1-0.2,0
				C150.1,117.3,150.1,117.2,150.2,117.2z"/>
		</g>
		<g>
			<path class="st18" d="M160.7,114.7c0-0.1,0.1-0.1,0.2,0c0.1,0,0.1,0.1,0,0.2c0,0.1-0.1,0.1-0.2,0
				C160.7,114.8,160.7,114.7,160.7,114.7z"/>
		</g>
		<g>
			<path class="st18" d="M160.9,120.4c0.1-0.1,0.2-0.1,0.3,0s0.1,0.2,0,0.3c-0.1,0.1-0.2,0.1-0.3,0
				C160.8,120.6,160.8,120.5,160.9,120.4z"/>
		</g>
		<g>
			<path class="st18" d="M159.8,124.8c0.1-0.1,0.2-0.1,0.2,0c0.1,0.1,0.1,0.2,0,0.2c-0.1,0.1-0.2,0.1-0.2,0
				C159.8,125,159.8,124.9,159.8,124.8z"/>
		</g>
		<g>
			<path class="st18" d="M166.5,124.6c0.1-0.1,0.2-0.1,0.2,0c0.1,0.1,0.1,0.2,0,0.2c-0.1,0.1-0.2,0.1-0.2,0
				C166.4,124.8,166.4,124.7,166.5,124.6z"/>
		</g>
		<g>
			<path class="st18" d="M160.5,130.1c0.1-0.1,0.2-0.1,0.3,0s0.1,0.2,0,0.3s-0.2,0.1-0.3,0S160.4,130.2,160.5,130.1z"/>
		</g>
		<g>
			<path class="st18" d="M167.3,132.6c0.1-0.1,0.3-0.1,0.4,0c0.1,0.1,0.1,0.3,0,0.4c-0.1,0.1-0.3,0.1-0.4,0
				C167.2,132.9,167.2,132.7,167.3,132.6z"/>
		</g>
		<g>
			<path class="st18" d="M164.5,135.9c0.1-0.1,0.1-0.1,0.2,0c0.1,0.1,0.1,0.1,0,0.2c-0.1,0.1-0.1,0.1-0.2,0
				C164.5,136.1,164.5,136,164.5,135.9z"/>
		</g>
		<g>
			<path class="st18" d="M158.5,138.2c0.1-0.1,0.2-0.1,0.3,0s0.1,0.2,0,0.3s-0.2,0.1-0.3,0S158.4,138.2,158.5,138.2z"/>
		</g>
		<g>
			<path class="st18" d="M157.4,131.6c0.1-0.1,0.4-0.2,0.5,0c0.1,0.1,0.1,0.4,0,0.5s-0.4,0.2-0.5,0
				C157.3,132,157.3,131.7,157.4,131.6z"/>
		</g>
		<g>
			<path class="st18" d="M151.3,135.5c0.1-0.1,0.2-0.1,0.2,0c0.1,0.1,0.1,0.2,0,0.2c-0.1,0.1-0.2,0.1-0.2,0
				C151.2,135.7,151.2,135.6,151.3,135.5z"/>
		</g>
		<g>
			<path class="st18" d="M148.9,131.2c0.1-0.1,0.4-0.1,0.5,0s0.1,0.4,0,0.5s-0.4,0.1-0.5,0C148.8,131.6,148.8,131.4,148.9,131.2z"/>
		</g>
		<g>
			<path class="st18" d="M149.6,125.9c0.1-0.1,0.3-0.1,0.4,0c0.1,0.1,0.1,0.3,0,0.4s-0.3,0.1-0.4,0
				C149.5,126.2,149.5,126,149.6,125.9z"/>
		</g>
		<g>
			<path class="st18" d="M142.9,128.3c0.1-0.1,0.4-0.2,0.5,0c0.1,0.1,0.2,0.4,0,0.5c-0.1,0.1-0.4,0.2-0.5,0
				C142.8,128.7,142.8,128.4,142.9,128.3z"/>
		</g>
		<g>
			<path class="st18" d="M139.8,124.3c0.1-0.1,0.1-0.1,0.2,0c0.1,0.1,0.1,0.1,0,0.2s-0.1,0.1-0.2,0
				C139.8,124.4,139.8,124.3,139.8,124.3z"/>
		</g>
		<g>
			<path class="st18" d="M136.5,118.1c0.1-0.1,0.4-0.2,0.5,0c0.1,0.1,0.2,0.4,0,0.5c-0.1,0.1-0.4,0.2-0.5,0
				C136.4,118.5,136.4,118.2,136.5,118.1z"/>
		</g>
		<g>
			<path class="st18" d="M119.1,118.1c0.1-0.1,0.4-0.1,0.5,0s0.1,0.4,0,0.5s-0.4,0.1-0.5,0C119,118.4,119,118.2,119.1,118.1z"/>
		</g>
		<g>
			<path class="st18" d="M123.6,18.1c0.2-0.2,0.4-0.2,0.6,0s0.2,0.4,0,0.6c-0.1,0.2-0.4,0.2-0.6,0S123.4,18.2,123.6,18.1z"/>
		</g>
		<g>
			<path class="st18" d="M130.3,24.7c0.1-0.1,0.3-0.1,0.4,0c0.1,0.1,0.1,0.3,0,0.4s-0.3,0.1-0.4,0C130.2,25,130.2,24.8,130.3,24.7z"
				/>
		</g>
		<g>
			<path class="st18" d="M134.9,22c0.1-0.1,0.3-0.1,0.4,0c0.1,0.1,0.1,0.3,0,0.4s-0.3,0.1-0.4,0C134.8,22.2,134.8,22.1,134.9,22z"/>
		</g>
		<g>
			<path class="st18" d="M136.5,26.5c0.1-0.1,0.2-0.1,0.3,0s0.1,0.2,0,0.3c-0.1,0.1-0.2,0.1-0.3,0C136.5,26.8,136.5,26.6,136.5,26.5
				z"/>
		</g>
		<g>
			<path class="st18" d="M141.6,28.5c0.1-0.1,0.3-0.1,0.5,0c0.1,0.1,0.1,0.3,0,0.5c-0.1,0.1-0.3,0.1-0.5,0
				C141.5,28.9,141.5,28.6,141.6,28.5z"/>
		</g>
		<g>
			<path class="st18" d="M144.9,30.6c0.1-0.1,0.2-0.1,0.3,0s0.1,0.2,0,0.3c-0.1,0.1-0.2,0.1-0.3,0C144.8,30.9,144.8,30.7,144.9,30.6
				z"/>
		</g>
		<g>
			<path class="st18" d="M152.6,87.6c0.1-0.1,0.4-0.2,0.5,0c0.1,0.1,0.2,0.4,0,0.5c-0.1,0.1-0.4,0.2-0.5,0
				C152.4,88,152.4,87.7,152.6,87.6z"/>
		</g>
		<g>
			<path class="st18" d="M158.3,87.4c0.1-0.1,0.3-0.1,0.4,0c0.1,0.1,0.1,0.3,0,0.4s-0.3,0.1-0.4,0C158.2,87.7,158.2,87.5,158.3,87.4
				z"/>
		</g>
		<g>
			<path class="st18" d="M117.7,133.6c0.1-0.1,0.3-0.1,0.4,0s0.1,0.3,0,0.4c-0.1,0.1-0.3,0.1-0.4,0S117.6,133.7,117.7,133.6z"/>
		</g>
		<g>
			<path class="st18" d="M125.8,135c0.1-0.1,0.4-0.2,0.5,0c0.1,0.1,0.2,0.4,0,0.5c-0.1,0.1-0.4,0.2-0.5,0
				C125.6,135.4,125.6,135.2,125.8,135z"/>
		</g>
		<g>
			<path class="st18" d="M122.4,145.9c0.1-0.1,0.2-0.1,0.3,0c0.1,0.1,0.1,0.2,0,0.3s-0.2,0.1-0.3,0
				C122.3,146.2,122.3,146,122.4,145.9z"/>
		</g>
		<g>
			<path class="st18" d="M132.6,139.3c0.1-0.1,0.3-0.1,0.4,0c0.1,0.1,0.1,0.3,0,0.4c-0.1,0.1-0.3,0.1-0.4,0
				C132.5,139.6,132.5,139.4,132.6,139.3z"/>
		</g>
		<g>
			<path class="st18" d="M136.1,151.6c0.1-0.1,0.2-0.1,0.3,0s0.1,0.2,0,0.3s-0.2,0.1-0.3,0C136,151.9,136,151.7,136.1,151.6z"/>
		</g>
		<g>
			<path class="st18" d="M142.3,146.2c0.1-0.1,0.2-0.1,0.3,0s0.1,0.2,0,0.3s-0.2,0.1-0.3,0S142.2,146.3,142.3,146.2z"/>
		</g>
		<g>
			<path class="st18" d="M144.5,152.3c0.1-0.2,0.4-0.2,0.5,0c0.2,0.1,0.2,0.4,0,0.5c-0.1,0.2-0.4,0.2-0.5,0
				C144.4,152.7,144.4,152.5,144.5,152.3z"/>
		</g>
		<g>
			<path class="st18" d="M150.5,149c0.1-0.1,0.3-0.1,0.5,0c0.1,0.1,0.1,0.3,0,0.5c-0.1,0.1-0.3,0.1-0.5,0
				C150.4,149.4,150.4,149.2,150.5,149z"/>
		</g>
		<g>
			<path class="st18" d="M156.9,143.4c0.1-0.1,0.2-0.1,0.3,0s0.1,0.2,0,0.3s-0.2,0.1-0.3,0C156.8,143.7,156.8,143.5,156.9,143.4z"/>
		</g>
		<g>
			<path class="st18" d="M154.6,137.4c0.1-0.2,0.4-0.2,0.5,0c0.2,0.1,0.2,0.4,0,0.5c-0.1,0.2-0.4,0.2-0.5,0
				C154.4,137.8,154.4,137.6,154.6,137.4z"/>
		</g>
		<g>
			<path class="st18" d="M154,128.5c0.1-0.1,0.3-0.1,0.4,0c0.1,0.1,0.1,0.3,0,0.4c-0.1,0.1-0.3,0.1-0.4,0
				C153.9,128.8,153.9,128.6,154,128.5z"/>
		</g>
		<g>
			<path class="st18" d="M147.8,129.1c0.1-0.1,0.4-0.2,0.5,0c0.1,0.1,0.2,0.4,0,0.5c-0.1,0.1-0.4,0.2-0.5,0
				C147.6,129.5,147.6,129.3,147.8,129.1z"/>
		</g>
		<g>
			<path class="st18" d="M145.7,123.6c0.1-0.1,0.3-0.1,0.4,0c0.1,0.1,0.1,0.3,0,0.4s-0.3,0.1-0.4,0S145.6,123.7,145.7,123.6z"/>
		</g>
		<g>
			<path class="st18" d="M134.4,124.8c0.1-0.1,0.3-0.1,0.5,0c0.1,0.1,0.1,0.3,0,0.5c-0.1,0.1-0.3,0.1-0.5,0
				C134.3,125.1,134.3,124.9,134.4,124.8z"/>
		</g>
		<g>
			<path class="st18" d="M164.2,110.1c0.1-0.1,0.4-0.2,0.5,0c0.1,0.1,0.2,0.4,0,0.5c-0.1,0.1-0.4,0.2-0.5,0
				C164.1,110.4,164.1,110.2,164.2,110.1z"/>
		</g>
		<g>
			<path class="st18" d="M168.6,110.7c0.1-0.1,0.4-0.1,0.5,0s0.1,0.4,0,0.5s-0.4,0.1-0.5,0S168.5,110.9,168.6,110.7z"/>
		</g>
		<g>
			<path class="st18" d="M169.2,113.3c0.1-0.1,0.3-0.1,0.4,0c0.1,0.1,0.1,0.3,0,0.4s-0.3,0.1-0.4,0
				C169.1,113.5,169.1,113.4,169.2,113.3z"/>
		</g>
		<g>
			<path class="st18" d="M173.9,119.6c0.1-0.1,0.2-0.1,0.3,0s0.1,0.2,0,0.3c-0.1,0.1-0.2,0.1-0.3,0
				C173.8,119.8,173.8,119.7,173.9,119.6z"/>
		</g>
		<g>
			<path class="st18" d="M152.9,149c0.1-0.1,0.2-0.1,0.3,0s0.1,0.2,0,0.3s-0.2,0.1-0.3,0C152.8,149.2,152.8,149.1,152.9,149z"/>
		</g>
		<g>
			<path class="st18" d="M144.3,152.5c0.1-0.1,0.3-0.1,0.4,0c0.1,0.1,0.1,0.3,0,0.4c-0.1,0.1-0.3,0.1-0.4,0
				C144.2,152.8,144.2,152.6,144.3,152.5z"/>
		</g>
		<g>
			<path class="st18" d="M139.5,149.4c0.1-0.1,0.2-0.1,0.2,0c0.1,0.1,0.1,0.2,0,0.2c-0.1,0.1-0.2,0.1-0.2,0
				C139.4,149.5,139.4,149.4,139.5,149.4z"/>
		</g>
		<g>
			<path class="st18" d="M128.6,159c0.1-0.1,0.3-0.1,0.4,0c0.1,0.1,0.1,0.3,0,0.4c-0.1,0.1-0.3,0.1-0.4,0
				C128.5,159.3,128.5,159.1,128.6,159z"/>
		</g>
		<g>
			<path class="st18" d="M120.3,162.8c0.1-0.1,0.3-0.1,0.4,0s0.1,0.3,0,0.4c-0.1,0.1-0.3,0.1-0.4,0
				C120.2,163.1,120.2,162.9,120.3,162.8z"/>
		</g>
		<g>
			<path class="st18" d="M118.3,162.1c0.1-0.1,0.2-0.1,0.2,0c0.1,0.1,0.1,0.2,0,0.2c-0.1,0.1-0.2,0.1-0.2,0
				C118.2,162.3,118.2,162.2,118.3,162.1z"/>
		</g>
		<g>
			<path class="st18" d="M122,162.3c0.1-0.1,0.3-0.1,0.5,0c0.1,0.1,0.1,0.3,0,0.5c-0.1,0.1-0.3,0.1-0.5,0
				C121.9,162.7,121.9,162.5,122,162.3z"/>
		</g>
		<g>
			<path class="st18" d="M172.4,119.7c0.1-0.1,0.3-0.1,0.4,0c0.1,0.1,0.1,0.3,0,0.4s-0.3,0.1-0.4,0S172.3,119.8,172.4,119.7z"/>
		</g>
		<g>
			<path class="st18" d="M167.1,110.9c0.1-0.1,0.3-0.1,0.5,0c0.1,0.1,0.1,0.3,0,0.5c-0.1,0.1-0.3,0.1-0.5,0
				C167,111.2,167,111,167.1,110.9z"/>
		</g>
		<g>
			<path class="st18" d="M163.5,111.8c0.1-0.2,0.4-0.2,0.5,0c0.2,0.1,0.2,0.4,0,0.5c-0.1,0.2-0.4,0.2-0.5,0
				C163.3,112.2,163.3,112,163.5,111.8z"/>
		</g>
		<g>
			<path class="st18" d="M149.3,117.3c0.1-0.1,0.3-0.1,0.4,0c0.1,0.1,0.1,0.3,0,0.4s-0.3,0.1-0.4,0
				C149.2,117.6,149.2,117.4,149.3,117.3z"/>
		</g>
		<g>
			<path class="st18" d="M152.6,116.9c0.1-0.1,0.3-0.1,0.4,0c0.1,0.1,0.1,0.3,0,0.4s-0.3,0.1-0.4,0
				C152.5,117.2,152.5,117,152.6,116.9z"/>
		</g>
		<g>
			<path class="st18" d="M162.9,116.2c0.1-0.1,0.3-0.1,0.5,0c0.1,0.1,0.1,0.3,0,0.5c-0.1,0.1-0.3,0.1-0.5,0
				C162.8,116.5,162.8,116.3,162.9,116.2z"/>
		</g>
		<g>
			<path class="st18" d="M165.6,114.8c0.1-0.1,0.2-0.1,0.3,0s0.1,0.2,0,0.3c-0.1,0.1-0.2,0.1-0.3,0
				C165.5,115,165.5,114.9,165.6,114.8z"/>
		</g>
		<g>
			<path class="st18" d="M169.6,121.9c0.1-0.1,0.3-0.1,0.4,0c0.1,0.1,0.1,0.3,0,0.4s-0.3,0.1-0.4,0
				C169.5,122.2,169.5,122,169.6,121.9z"/>
		</g>
		<g>
			<path class="st18" d="M172.6,112.4c0.1-0.1,0.2-0.1,0.2,0c0.1,0.1,0.1,0.2,0,0.2c-0.1,0.1-0.2,0.1-0.2,0
				C172.5,112.5,172.5,112.4,172.6,112.4z"/>
		</g>
		<g>
			<path class="st18" d="M164.2,110.2c0.1-0.1,0.3-0.1,0.5,0c0.1,0.1,0.1,0.3,0,0.5c-0.1,0.1-0.3,0.1-0.5,0
				C164.1,110.5,164.1,110.3,164.2,110.2z"/>
		</g>
		<g>
			<path class="st18" d="M163.8,100.7c0.1-0.1,0.3-0.1,0.4,0c0.1,0.1,0.1,0.3,0,0.4s-0.3,0.1-0.4,0
				C163.7,101,163.7,100.8,163.8,100.7z"/>
		</g>
		<g>
			<path class="st18" d="M123.2,29.9c0.1-0.2,0.4-0.2,0.5,0c0.2,0.1,0.2,0.4,0,0.5c-0.1,0.2-0.4,0.2-0.5,0
				C123,30.3,123,30.1,123.2,29.9z"/>
		</g>
		<g>
			<path class="st18" d="M121.4,27.1c0.1-0.2,0.4-0.2,0.5,0c0.1,0.1,0.2,0.4,0,0.5c-0.1,0.1-0.4,0.2-0.5,0
				C121.3,27.5,121.3,27.2,121.4,27.1z"/>
		</g>
		<g>
			<path class="st18" d="M120.7,26.7c0-0.1,0.1-0.1,0.2,0c0.1,0,0.1,0.1,0,0.2s-0.1,0.1-0.2,0C120.6,26.9,120.6,26.8,120.7,26.7z"/>
		</g>
		<g>
			<path class="st18" d="M126,27.9c0.1-0.1,0.4-0.1,0.5,0s0.1,0.4,0,0.5s-0.4,0.1-0.5,0C125.8,28.3,125.8,28.1,126,27.9z"/>
		</g>
		<g>
			<path class="st18" d="M158.8,108.8c0.1-0.1,0.3-0.1,0.4,0c0.1,0.1,0.1,0.3,0,0.4s-0.3,0.1-0.4,0
				C158.7,109.1,158.7,108.9,158.8,108.8z"/>
		</g>
		<g>
			<path class="st18" d="M163.8,110.2c0.1-0.1,0.3-0.1,0.4,0c0.1,0.1,0.1,0.3,0,0.4s-0.3,0.1-0.4,0
				C163.7,110.6,163.7,110.4,163.8,110.2z"/>
		</g>
		<g>
			<path class="st18" d="M161.4,124.8c0.1-0.1,0.4-0.1,0.5,0s0.1,0.4,0,0.5s-0.4,0.1-0.5,0C161.3,125.2,161.3,124.9,161.4,124.8z"/>
		</g>
		<g>
			<path class="st18" d="M173.5,119.9c0.1-0.1,0.1-0.1,0.2,0c0.1,0.1,0.1,0.1,0,0.2s-0.1,0.1-0.2,0
				C173.5,120,173.5,119.9,173.5,119.9z"/>
		</g>
		<g>
			<path class="st18" d="M77.1,127.3c0.1-0.1,0.1-0.1,0.2,0s0.1,0.1,0,0.2s-0.1,0.1-0.2,0C77.1,127.5,77.1,127.4,77.1,127.3z"/>
		</g>
		<g>
			<path class="st18" d="M83.1,131c0.1-0.1,0.3-0.1,0.4,0s0.1,0.3,0,0.4c-0.1,0.1-0.3,0.1-0.4,0C83,131.3,83,131.1,83.1,131z"/>
		</g>
		<g>
			<path class="st18" d="M82.6,138.5c0.1-0.1,0.4-0.1,0.5,0s0.1,0.4,0,0.5s-0.4,0.1-0.5,0C82.4,138.8,82.4,138.6,82.6,138.5z"/>
		</g>
		<g>
			<path class="st18" d="M90.7,138.5c0.1-0.1,0.3-0.1,0.4,0s0.1,0.3,0,0.4c-0.1,0.1-0.3,0.1-0.4,0C90.6,138.8,90.6,138.6,90.7,138.5
				z"/>
		</g>
		<g>
			<path class="st18" d="M92.8,139.1c0.1-0.1,0.3-0.1,0.5,0c0.1,0.1,0.1,0.3,0,0.5c-0.1,0.1-0.3,0.1-0.5,0
				C92.6,139.4,92.6,139.2,92.8,139.1z"/>
		</g>
		<g>
			<path class="st18" d="M90.1,145.4c0.1-0.1,0.4-0.2,0.5,0c0.1,0.1,0.2,0.4,0,0.5c-0.1,0.1-0.4,0.2-0.5,0
				C90,145.8,90,145.6,90.1,145.4z"/>
		</g>
		<g>
			<path class="st18" d="M95.4,151.7c0.1-0.1,0.2-0.1,0.2,0c0.1,0.1,0.1,0.2,0,0.2c-0.1,0.1-0.2,0.1-0.2,0
				C95.4,151.9,95.4,151.8,95.4,151.7z"/>
		</g>
		<g>
			<path class="st18" d="M104.9,150.6c0.1-0.1,0.4-0.2,0.5,0c0.1,0.1,0.2,0.4,0,0.5c-0.1,0.1-0.4,0.2-0.5,0
				C104.8,151,104.8,150.7,104.9,150.6z"/>
		</g>
		<g>
			<path class="st18" d="M94.6,160.6c0.1-0.1,0.3-0.1,0.4,0s0.1,0.3,0,0.4c-0.1,0.1-0.3,0.1-0.4,0S94.5,160.8,94.6,160.6z"/>
		</g>
		<g>
			<path class="st18" d="M100.4,163.9c0.1-0.1,0.4-0.2,0.5,0c0.1,0.1,0.2,0.4,0,0.5c-0.1,0.1-0.4,0.2-0.5,0
				C100.3,164.3,100.3,164.1,100.4,163.9z"/>
		</g>
	</g>
	<g>
		<linearGradient id="SVGID_13_" gradientUnits="userSpaceOnUse" x1="168.6935" y1="30.7505" x2="65.283" y2="168.0043">
			<stop  offset="0" style="stop-color:#FFFFFF;stop-opacity:0.6"/>
			<stop  offset="0.7705" style="stop-color:#FFFFFF;stop-opacity:0"/>
		</linearGradient>
		<path class="st19" d="M168.6,41.7c-6.2-9.5-14.1-17.8-23.4-24.5l-121.5,136c16.8,18.6,41,30.2,68,30.2c5.4,0,10.6-0.5,15.7-1.3
			L168.6,41.7z"/>
		<g>
			<path class="st15" d="M122.2,67.8c-0.3,0.4-0.2,1,0.2,1.3c0.4,0.3,1,0.2,1.3-0.2c0.3-0.4,0.2-1-0.2-1.3
				C123.1,67.3,122.5,67.4,122.2,67.8z"/>
			<path class="st15" d="M125.4,49.5c-0.3,0.4-0.2,1,0.2,1.3c0.4,0.3,1,0.2,1.3-0.2s0.2-1-0.2-1.3S125.7,49.1,125.4,49.5z"/>
			<path class="st15" d="M145.4,19.8c-0.3,0.4-0.2,1,0.2,1.3s1,0.2,1.3-0.2c0.3-0.4,0.2-1-0.2-1.3S145.7,19.4,145.4,19.8z"/>
			<path class="st16" d="M41.4,118.7c-0.3,0.4-0.2,1,0.2,1.3s1,0.2,1.3-0.2c0.3-0.4,0.2-1-0.2-1.3S41.7,118.3,41.4,118.7z"/>
			<path class="st15" d="M151.8,28.1c-0.3,0.4-0.2,1,0.2,1.3s1,0.2,1.3-0.2c0.3-0.4,0.2-1-0.2-1.3C152.7,27.6,152.1,27.7,151.8,28.1
				z"/>
			<path class="st16" d="M124,59.9c-0.2,0.3-0.1,0.6,0.1,0.8c0.3,0.2,0.6,0.1,0.8-0.1c0.2-0.3,0.1-0.6-0.1-0.8
				C124.6,59.6,124.2,59.7,124,59.9z"/>
			<path class="st16" d="M82.9,108c-0.2,0.3-0.1,0.6,0.1,0.8c0.3,0.2,0.6,0.1,0.8-0.1c0.2-0.3,0.1-0.6-0.1-0.8
				C83.4,107.7,83.1,107.7,82.9,108z"/>
			<path class="st16" d="M129.2,53.5c-0.2,0.3-0.1,0.6,0.1,0.8c0.3,0.2,0.6,0.1,0.8-0.1c0.2-0.3,0.1-0.6-0.1-0.8
				C129.7,53.2,129.3,53.2,129.2,53.5z"/>
			<path class="st16" d="M133.9,55.4c-0.2,0.3-0.1,0.6,0.1,0.8c0.3,0.2,0.6,0.1,0.8-0.1c0.2-0.3,0.1-0.6-0.1-0.8
				C134.5,55.1,134.1,55.1,133.9,55.4z"/>
			<path class="st15" d="M147,25.5c-0.2,0.3-0.1,0.6,0.1,0.8c0.3,0.2,0.6,0.1,0.8-0.1c0.2-0.3,0.1-0.6-0.1-0.8
				C147.5,25.2,147.2,25.3,147,25.5z"/>
			<path class="st14" d="M119.1,60.5c-0.2,0.3-0.1,0.6,0.1,0.8c0.3,0.2,0.6,0.1,0.8-0.1c0.2-0.3,0.1-0.6-0.1-0.8
				C119.6,60.1,119.2,60.2,119.1,60.5z"/>
			<path class="st14" d="M149.1,40.3c-0.2,0.3-0.1,0.6,0.1,0.8c0.3,0.2,0.6,0.1,0.8-0.1c0.2-0.3,0.1-0.6-0.1-0.8
				C149.6,39.9,149.3,40,149.1,40.3z"/>
			<path class="st16" d="M105.2,83.7c-0.2,0.3-0.1,0.6,0.1,0.8c0.3,0.2,0.6,0.1,0.8-0.1c0.2-0.3,0.1-0.6-0.1-0.8
				C105.7,83.4,105.3,83.4,105.2,83.7z"/>
			<path class="st16" d="M89.4,69c-0.2,0.3-0.1,0.6,0.1,0.8c0.3,0.2,0.6,0.1,0.8-0.1c0.2-0.3,0.1-0.6-0.1-0.8
				C89.9,68.6,89.5,68.7,89.4,69z"/>
			<path class="st16" d="M95.4,103.1c-0.2,0.3-0.1,0.6,0.1,0.8c0.3,0.2,0.6,0.1,0.8-0.1c0.2-0.3,0.1-0.6-0.1-0.8
				C95.9,102.8,95.6,102.9,95.4,103.1z"/>
			<path class="st16" d="M109.2,66.3c-0.2,0.3-0.1,0.6,0.1,0.8c0.3,0.2,0.6,0.1,0.8-0.1c0.2-0.3,0.1-0.6-0.1-0.8
				C109.8,65.9,109.4,66,109.2,66.3z"/>
			<path class="st14" d="M134.8,39.5c-0.2,0.3-0.1,0.6,0.1,0.8c0.3,0.2,0.6,0.1,0.8-0.1c0.2-0.3,0.1-0.6-0.1-0.8
				S135,39.3,134.8,39.5z"/>
			<path class="st16" d="M144.3,38.3c-0.1,0.2-0.1,0.4,0.1,0.6c0.2,0.1,0.4,0.1,0.6-0.1c0.1-0.2,0.1-0.4-0.1-0.6
				C144.7,38.1,144.4,38.2,144.3,38.3z"/>
		</g>
		<g>
			<path class="st14" d="M137.4,57.1c0.3-0.4,0.2-1-0.3-1.3c-0.4-0.3-1-0.2-1.3,0.3c-0.3,0.4-0.2,1,0.3,1.3
				C136.5,57.7,137.1,57.6,137.4,57.1z"/>
			<path class="st15" d="M134.8,75.5c0.3-0.4,0.2-1-0.3-1.3c-0.4-0.3-1-0.2-1.3,0.3c-0.3,0.4-0.2,1,0.3,1.3
				C133.9,76.1,134.5,75.9,134.8,75.5z"/>
			<path class="st14" d="M115.8,105.8c0.3-0.4,0.2-1-0.3-1.3s-1-0.2-1.3,0.3c-0.3,0.4-0.2,1,0.3,1.3
				C114.9,106.4,115.5,106.3,115.8,105.8z"/>
			<path class="st16" d="M138.4,45.6c0.3-0.4,0.2-1-0.3-1.3c-0.4-0.3-1-0.2-1.3,0.3c-0.3,0.4-0.2,1,0.3,1.3
				C137.5,46.2,138.1,46.1,138.4,45.6z"/>
			<path class="st15" d="M109.1,97.7c0.3-0.4,0.2-1-0.3-1.3s-1-0.2-1.3,0.3c-0.3,0.4-0.2,1,0.3,1.3
				C108.2,98.3,108.8,98.2,109.1,97.7z"/>
			<path class="st16" d="M135.8,65c0.2-0.3,0.1-0.6-0.2-0.8c-0.3-0.2-0.6-0.1-0.8,0.2c-0.2,0.3-0.1,0.6,0.2,0.8S135.7,65.3,135.8,65
				z"/>
			<path class="st16" d="M160.5,46.7c0.2-0.3,0.1-0.6-0.2-0.8s-0.6-0.1-0.8,0.2s-0.1,0.6,0.2,0.8C160,47,160.3,46.9,160.5,46.7z"/>
			<path class="st16" d="M130.9,71.6c0.2-0.3,0.1-0.6-0.2-0.8c-0.3-0.2-0.6-0.1-0.8,0.2c-0.2,0.3-0.1,0.6,0.2,0.8
				S130.8,71.9,130.9,71.6z"/>
			<path class="st16" d="M126.1,69.9c0.2-0.3,0.1-0.6-0.2-0.8c-0.3-0.2-0.6-0.1-0.8,0.2c-0.2,0.3-0.1,0.6,0.2,0.8
				C125.6,70.2,125.9,70.2,126.1,69.9z"/>
			<path class="st16" d="M114,100.2c0.2-0.3,0.1-0.6-0.2-0.8c-0.3-0.2-0.6-0.1-0.8,0.2c-0.2,0.3-0.1,0.6,0.2,0.8
				C113.5,100.5,113.8,100.4,114,100.2z"/>
			<path class="st14" d="M140.8,64.4c0.2-0.3,0.1-0.6-0.2-0.8s-0.6-0.1-0.8,0.2c-0.2,0.3-0.1,0.6,0.2,0.8
				C140.3,64.7,140.6,64.6,140.8,64.4z"/>
			<path class="st14" d="M111.4,85.5c0.2-0.3,0.1-0.6-0.2-0.8c-0.3-0.2-0.6-0.1-0.8,0.2c-0.2,0.3-0.1,0.6,0.2,0.8
				C110.9,85.8,111.2,85.8,111.4,85.5z"/>
			<path class="st15" d="M154,40.7c0.2-0.3,0.1-0.6-0.2-0.8s-0.6-0.1-0.8,0.2s-0.1,0.6,0.2,0.8C153.4,41.1,153.8,41,154,40.7z"/>
			<path class="st16" d="M148.5,71.1c0.2-0.3,0.1-0.6-0.2-0.8c-0.3-0.2-0.6-0.1-0.8,0.2c-0.2,0.3-0.1,0.6,0.2,0.8
				C148,71.4,148.4,71.3,148.5,71.1z"/>
			<path class="st16" d="M115.6,76.2c0.2-0.3,0.1-0.6-0.2-0.8c-0.3-0.2-0.6-0.1-0.8,0.2c-0.2,0.3-0.1,0.6,0.2,0.8
				C115.1,76.5,115.5,76.4,115.6,76.2z"/>
			<path class="st16" d="M150.4,58.3c0.2-0.3,0.1-0.6-0.2-0.8s-0.6-0.1-0.8,0.2s-0.1,0.6,0.2,0.8C149.9,58.6,150.3,58.5,150.4,58.3z
				"/>
			<path class="st14" d="M125.7,85.8c0.2-0.3,0.1-0.6-0.2-0.8c-0.3-0.2-0.6-0.1-0.8,0.2c-0.2,0.3-0.1,0.6,0.2,0.8
				C125.2,86.1,125.5,86,125.7,85.8z"/>
			<path class="st16" d="M116.3,87.3c0.1-0.2,0.1-0.4-0.1-0.5s-0.4-0.1-0.5,0.1s-0.1,0.4,0.1,0.5C115.9,87.5,116.1,87.5,116.3,87.3z
				"/>
		</g>
	</g>
	<g>
		<g>
			<linearGradient id="SVGID_14_" gradientUnits="userSpaceOnUse" x1="119.8774" y1="21.0637" x2="174.8677" y2="112.3798">
				<stop  offset="0" style="stop-color:#FFFFFF;stop-opacity:0.6"/>
				<stop  offset="0.9841" style="stop-color:#FFFFFF;stop-opacity:0"/>
			</linearGradient>
			<path class="st20" d="M183.2,98.2c-0.4,5.9-1.4,11.6-2.8,17.1c-1.4,5.4-6,15.6-8.3,20.5L106,1.9L105.5,1h0.3l0.5,0.1
				c3.3,0.5,6.6,1.2,9.8,2.1c0.2,0.1,0.5,0.1,0.7,0.2c0.4,0.1,0.8,0.2,1.2,0.4L183.2,98.2L183.2,98.2z"/>
			<g>
				<g>
					<g>
						<path class="st15" d="M133.8,41.9c0.1,0.3,0,0.6-0.2,0.7c-0.3,0.1-0.6,0-0.7-0.2s0-0.6,0.2-0.7S133.6,41.7,133.8,41.9z"/>
					</g>
					<g>
						<path class="st15" d="M133.2,31.9c0.1,0.3,0,0.6-0.2,0.7c-0.3,0.1-0.6,0-0.7-0.2s0-0.6,0.2-0.7
							C132.8,31.6,133.1,31.7,133.2,31.9z"/>
					</g>
					<g>
						<path class="st15" d="M118,12.6c0.1,0.3,0,0.6-0.2,0.7c-0.3,0.1-0.6,0-0.7-0.2c-0.1-0.3,0-0.6,0.2-0.7
							C117.6,12.3,117.9,12.4,118,12.6z"/>
					</g>
					<g>
						<path class="st15" d="M159.7,82.5c0.1,0.3,0,0.6-0.2,0.7c-0.3,0.1-0.6,0-0.7-0.2c-0.1-0.3,0-0.6,0.2-0.7
							C159.3,82.1,159.6,82.2,159.7,82.5z"/>
					</g>
					<g>
						<path class="st15" d="M120.4,18.8c0.1,0.3,0,0.6-0.2,0.7c-0.3,0.1-0.6,0-0.7-0.2c-0.1-0.3,0-0.6,0.2-0.7
							C120,18.4,120.3,18.5,120.4,18.8z"/>
					</g>
					<g>
						<path class="st15" d="M133.3,37.6c0.1,0.2,0,0.3-0.1,0.4c-0.2,0.1-0.3,0-0.4-0.1c-0.1-0.2,0-0.3,0.1-0.4
							C133,37.4,133.2,37.5,133.3,37.6z"/>
					</g>
					<g>
						<path class="st15" d="M152.3,66c0.1,0.2,0,0.3-0.1,0.4c-0.2,0.1-0.3,0-0.4-0.1c-0.1-0.2,0-0.3,0.1-0.4
							C152,65.8,152.2,65.8,152.3,66z"/>
					</g>
					<g>
						<ellipse class="st15" cx="130.7" cy="33.9" rx="0.3" ry="0.3"/>
					</g>
					<g>
						<path class="st15" d="M128.3,34.5c0.1,0.2,0,0.3-0.1,0.4c-0.2,0.1-0.3,0-0.4-0.1c-0.1-0.2,0-0.3,0.1-0.4
							C128,34.3,128.2,34.4,128.3,34.5z"/>
					</g>
					<g>
						<path class="st15" d="M123.2,17.7c0.1,0.2,0,0.3-0.1,0.4c-0.2,0.1-0.3,0-0.4-0.1c-0.1-0.2,0-0.3,0.1-0.4
							C122.9,17.5,123.1,17.5,123.2,17.7z"/>
					</g>
					<g>
						<path class="st15" d="M135.9,38.2c0.1,0.1,0,0.3-0.1,0.4c-0.1,0.1-0.3,0-0.4-0.1c-0.1-0.1,0-0.3,0.1-0.4
							S135.8,38.1,135.9,38.2z"/>
					</g>
					<g>
						<path class="st15" d="M121.4,21.9c0.1,0.1,0,0.3-0.1,0.4s-0.3,0-0.4-0.1s0-0.3,0.1-0.4C121.1,21.7,121.3,21.8,121.4,21.9z"/>
					</g>
					<g>
						<path class="st15" d="M141.9,51.5c0.1,0.1,0,0.3-0.1,0.4c-0.1,0.1-0.3,0-0.4-0.1c-0.1-0.1,0-0.3,0.1-0.4
							S141.8,51.4,141.9,51.5z"/>
					</g>
					<g>
						<path class="st15" d="M139.4,48.1c0.1,0.1,0,0.3-0.1,0.4c-0.1,0.1-0.3,0-0.4-0.1c-0.1-0.1,0-0.3,0.1-0.4
							C139.1,47.9,139.3,47.9,139.4,48.1z"/>
					</g>
					<g>
						<path class="st15" d="M145.9,62.6c0.1,0.1,0,0.3-0.1,0.4c-0.1,0.1-0.3,0-0.4-0.1c-0.1-0.1,0-0.3,0.1-0.4
							S145.8,62.4,145.9,62.6z"/>
					</g>
					<g>
						<path class="st15" d="M140.8,41.9c0.1,0.1,0,0.3-0.1,0.4c-0.1,0.1-0.3,0-0.4-0.1c-0.1-0.1,0-0.3,0.1-0.4
							C140.6,41.7,140.7,41.8,140.8,41.9z"/>
					</g>
					<g>
						<path class="st15" d="M128.8,26c0.1,0.1,0,0.3-0.1,0.4s-0.3,0-0.4-0.1c-0.1-0.1,0-0.3,0.1-0.4C128.5,25.8,128.7,25.8,128.8,26
							z"/>
					</g>
					<g>
						<path class="st15" d="M123.8,24.7c0.1,0.1,0,0.2-0.1,0.3c-0.1,0.1-0.2,0-0.3-0.1c-0.1-0.1,0-0.2,0.1-0.3
							C123.6,24.6,123.7,24.6,123.8,24.7z"/>
					</g>
				</g>
			</g>
		</g>
		<g>
			<linearGradient id="SVGID_15_" gradientUnits="userSpaceOnUse" x1="100.2985" y1="13.6898" x2="36.1164" y2="156.7847">
				<stop  offset="0" style="stop-color:#FFFFFF;stop-opacity:0.6"/>
				<stop  offset="0.9081" style="stop-color:#FFFFFF;stop-opacity:0"/>
			</linearGradient>
			<path class="st21" d="M106.3,1.2L106,1.9L49.8,173.3L38,166l0,0c-7.1-5.2-13.5-11.3-18.9-18.3L94.3,0c1,0,1.9,0.1,2.9,0.1
				c0.5,0,1,0.1,1.4,0.1c2.4,0.2,4.8,0.5,7.1,0.8L106.3,1.2z"/>
			<g>
				<g>
					<g>
						<path class="st15" d="M80.2,41.6c-0.2,0.3-0.6,0.5-0.9,0.3S78.8,41.3,79,41s0.6-0.5,0.9-0.3C80.2,40.9,80.3,41.3,80.2,41.6z"
							/>
					</g>
					<g>
						<circle class="st15" cx="89.6" cy="33.2" r="0.7"/>
					</g>
					<g>
						<circle class="st15" cx="98.4" cy="2.7" r="0.7"/>
					</g>
					<g>
						<path class="st15" d="M57.2,99.4c-0.2,0.3-0.6,0.5-0.9,0.3c-0.3-0.2-0.5-0.6-0.3-0.9s0.6-0.5,0.9-0.3
							C57.3,98.6,57.4,99,57.2,99.4z"/>
					</g>
					<g>
						<circle class="st15" cx="93.8" cy="9.9" r="0.7"/>
					</g>
					<g>
						<path class="st15" d="M84.3,37.8C84.2,38,84,38.1,83.8,38s-0.3-0.3-0.2-0.5c0.1-0.2,0.3-0.3,0.5-0.2
							C84.4,37.4,84.4,37.6,84.3,37.8z"/>
					</g>
					<g>
						<path class="st15" d="M68.9,79.1c-0.1,0.2-0.3,0.3-0.5,0.2c-0.2-0.1-0.3-0.3-0.2-0.5c0.1-0.2,0.3-0.3,0.5-0.2
							C68.9,78.7,69,78.9,68.9,79.1z"/>
					</g>
					<g>
						<path class="st15" d="M86.5,32.5c-0.1,0.2-0.3,0.3-0.5,0.2s-0.3-0.3-0.2-0.5c0.1-0.2,0.3-0.3,0.5-0.2
							C86.6,32.1,86.6,32.3,86.5,32.5z"/>
					</g>
					<g>
						<path class="st15" d="M83.8,30.3c-0.1,0.2-0.3,0.3-0.5,0.2c-0.2-0.1-0.3-0.3-0.2-0.5c0.1-0.2,0.3-0.3,0.5-0.2
							C83.8,29.8,83.9,30.1,83.8,30.3z"/>
					</g>
					<g>
						<path class="st15" d="M97.6,12.2c-0.1,0.2-0.3,0.3-0.5,0.2s-0.3-0.3-0.2-0.5c0.1-0.2,0.3-0.3,0.5-0.2S97.7,12,97.6,12.2z"/>
					</g>
					<g>
						<path class="st15" d="M85.7,41c-0.1,0.2-0.3,0.3-0.5,0.2s-0.3-0.3-0.2-0.5c0.1-0.2,0.3-0.3,0.5-0.2S85.8,40.8,85.7,41z"/>
					</g>
					<g>
						<path class="st15" d="M91.8,13.5c-0.1,0.2-0.3,0.3-0.5,0.2s-0.3-0.3-0.2-0.5c0.1-0.2,0.3-0.3,0.5-0.2S91.9,13.3,91.8,13.5z"/>
					</g>
					<g>
						<path class="st15" d="M76.2,57.3c-0.1,0.2-0.3,0.3-0.5,0.2s-0.3-0.3-0.2-0.5c0.1-0.2,0.3-0.3,0.5-0.2
							C76.3,56.9,76.3,57.1,76.2,57.3z"/>
					</g>
					<g>
						<path class="st15" d="M78,52.1c-0.1,0.2-0.3,0.3-0.5,0.2s-0.3-0.3-0.2-0.5c0.1-0.2,0.3-0.3,0.5-0.2C78,51.7,78,51.9,78,52.1z"
							/>
					</g>
					<g>
						<path class="st15" d="M67.7,69.8c-0.1,0.2-0.3,0.3-0.5,0.2c-0.2-0.1-0.3-0.3-0.2-0.5c0.1-0.2,0.3-0.3,0.5-0.2
							C67.7,69.4,67.8,69.6,67.7,69.8z"/>
					</g>
					<g>
						<path class="st15" d="M85.5,49c-0.1,0.2-0.3,0.3-0.5,0.2s-0.3-0.3-0.2-0.5c0.1-0.2,0.3-0.3,0.5-0.2
							C85.5,48.5,85.6,48.8,85.5,49z"/>
					</g>
					<g>
						<path class="st15" d="M93.1,24.4c-0.1,0.2-0.3,0.3-0.5,0.2c-0.2-0.1-0.3-0.3-0.2-0.5c0.1-0.2,0.3-0.3,0.5-0.2
							C93.2,23.9,93.2,24.2,93.1,24.4z"/>
					</g>
					<g>
						<path class="st15" d="M90.7,18.2c-0.1,0.1-0.2,0.2-0.4,0.1c-0.1-0.1-0.2-0.2-0.1-0.4c0.1-0.1,0.2-0.2,0.4-0.1
							C90.7,17.9,90.7,18,90.7,18.2z"/>
					</g>
				</g>
			</g>
		</g>
		<g>
			<linearGradient id="SVGID_16_" gradientUnits="userSpaceOnUse" x1="53.4296" y1="12.0397" x2="65.987" y2="124.0772">
				<stop  offset="0" style="stop-color:#FFFFFF;stop-opacity:0.6"/>
				<stop  offset="0.9081" style="stop-color:#FFFFFF;stop-opacity:0"/>
			</linearGradient>
			<path class="st22" d="M88.5,163.7l-36.2-0.5L46.5,11.9C50.2,9.8,54,8,58,6.4L88.5,163.7z"/>
			<g>
				<g>
					<g>
						<path class="st15" d="M58.1,61.3c0,0.3-0.2,0.6-0.5,0.7c-0.3,0-0.6-0.2-0.7-0.5c0-0.3,0.2-0.6,0.5-0.7
							C57.8,60.7,58.1,61,58.1,61.3z"/>
					</g>
					<g>
						<path class="st15" d="M61.8,50c0,0.3-0.2,0.6-0.5,0.7c-0.3,0-0.6-0.2-0.7-0.5c0-0.3,0.2-0.6,0.5-0.7
							C61.5,49.4,61.8,49.7,61.8,50z"/>
					</g>
					<g>
						<path class="st15" d="M53.3,22.1c0,0.3-0.2,0.6-0.5,0.7c-0.3,0-0.6-0.2-0.7-0.5c0-0.3,0.2-0.6,0.5-0.7
							C52.9,21.5,53.3,21.8,53.3,22.1z"/>
					</g>
					<g>
						<path class="st15" d="M69.5,117.3c0,0.3-0.2,0.6-0.5,0.7c-0.3,0-0.6-0.2-0.7-0.5c0-0.3,0.2-0.6,0.5-0.7
							C69.1,116.7,69.5,117,69.5,117.3z"/>
					</g>
					<g>
						<path class="st15" d="M53.3,29.9c0,0.3-0.2,0.6-0.5,0.7c-0.3,0-0.6-0.2-0.7-0.5c0-0.3,0.2-0.6,0.5-0.7
							C53,29.4,53.3,29.6,53.3,29.9z"/>
					</g>
					<g>
						<path class="st15" d="M59.5,56.3c0,0.2-0.1,0.4-0.3,0.4s-0.4-0.1-0.4-0.3s0.1-0.4,0.3-0.4C59.3,55.9,59.4,56.1,59.5,56.3z"/>
					</g>
					<g>
						<path class="st15" d="M68.3,95.8c0,0.2-0.1,0.4-0.3,0.4c-0.2,0-0.4-0.1-0.4-0.3s0.1-0.4,0.3-0.4
							C68.1,95.5,68.3,95.6,68.3,95.8z"/>
					</g>
					<g>
						<path class="st15" d="M58.5,51.1c0,0.2-0.1,0.4-0.3,0.4s-0.4-0.1-0.4-0.3s0.1-0.4,0.3-0.4S58.5,50.9,58.5,51.1z"/>
					</g>
					<g>
						<path class="st15" d="M55.2,50.8c0,0.2-0.1,0.4-0.3,0.4s-0.4-0.1-0.4-0.3s0.1-0.4,0.3-0.4C55,50.4,55.2,50.6,55.2,50.8z"/>
					</g>
					<g>
						<path class="st15" d="M56.8,29.9c0,0.2-0.1,0.4-0.3,0.4s-0.4-0.1-0.4-0.3c0-0.2,0.1-0.4,0.3-0.4S56.8,29.7,56.8,29.9z"/>
					</g>
					<g>
						<path class="st15" d="M62.1,58.1c0,0.2-0.1,0.4-0.3,0.4s-0.4-0.1-0.4-0.3s0.1-0.4,0.3-0.4C61.9,57.7,62.1,57.9,62.1,58.1z"/>
					</g>
					<g>
						<path class="st15" d="M53,33.8c0,0.2-0.1,0.4-0.3,0.4s-0.4-0.1-0.4-0.3s0.1-0.4,0.3-0.4S53,33.6,53,33.8z"/>
					</g>
					<g>
						<path class="st15" d="M63,75.4c0,0.2-0.1,0.4-0.3,0.4s-0.4-0.1-0.4-0.3c0-0.2,0.1-0.4,0.3-0.4S63,75.2,63,75.4z"/>
					</g>
					<g>
						<path class="st15" d="M61.7,70.5c0,0.2-0.1,0.4-0.3,0.4S61,70.8,61,70.6c0-0.2,0.1-0.4,0.3-0.4C61.5,70.1,61.7,70.3,61.7,70.5
							z"/>
					</g>
					<g>
						<path class="st15" d="M62.7,89.3c0,0.2-0.1,0.4-0.3,0.4S62,89.6,62,89.4s0.1-0.4,0.3-0.4S62.7,89.1,62.7,89.3z"/>
					</g>
					<g>
						<path class="st15" d="M65.9,64.3c0,0.2-0.1,0.4-0.3,0.4c-0.2,0-0.4-0.1-0.4-0.3s0.1-0.4,0.3-0.4C65.7,64,65.9,64.1,65.9,64.3z
							"/>
					</g>
					<g>
						<path class="st15" d="M59.5,41.5c0,0.2-0.1,0.4-0.3,0.4s-0.4-0.1-0.4-0.3s0.1-0.4,0.3-0.4S59.5,41.3,59.5,41.5z"/>
					</g>
					<g>
						<path class="st15" d="M54.5,38c0,0.1-0.1,0.3-0.2,0.3c-0.1,0-0.3-0.1-0.3-0.2c0-0.1,0.1-0.3,0.2-0.3
							C54.3,37.7,54.4,37.8,54.5,38z"/>
					</g>
				</g>
			</g>
		</g>
	</g>
</g>
<g>
	<path class="st23" d="M80.7,222.6v1h-6v-9.7h5.8v1h-4.7v3.2h4v1h-4v3.5H80.7z"/>
	<path class="st23" d="M81.3,216.7h1.2l2.1,5.7l2.1-5.7h1.2l-2.7,6.9H84L81.3,216.7z"/>
	<path class="st23" d="M94,222l0.5,0.8c-0.7,0.6-1.6,0.9-2.6,0.9c-2,0-3.2-1.3-3.2-3.6c0-2.2,1.3-3.6,3.4-3.6c1.6,0,2.6,0.8,2.6,2.2
		c0,1.3-1,2.1-2.7,2.1c-0.7,0-1.5-0.2-2.1-0.4c0.1,1.5,0.9,2.3,2.2,2.3C92.8,222.7,93.4,222.5,94,222z M89.8,219.7
		c0.6,0.2,1.2,0.3,1.8,0.3c1.1,0,1.8-0.5,1.8-1.3s-0.5-1.3-1.5-1.3C90.7,217.4,90,218.3,89.8,219.7z"/>
	<path class="st23" d="M102.2,218.6v4.9h-1.1v-4.7c0-0.8-0.5-1.4-1.5-1.4c-0.7,0-1.5,0.3-2,0.7v5.4h-1.1v-5.2c0-0.5-0.4-0.8-1-1
		l0.4-0.8c0.7,0.2,1.2,0.5,1.4,1c0.7-0.6,1.6-0.9,2.5-0.9C101.3,216.5,102.2,217.3,102.2,218.6z"/>
	<path class="st23" d="M108.7,223.3c-0.6,0.3-1.3,0.4-1.9,0.4c-1.3,0-2-0.7-2-1.9v-4.2h-1.3v-1h1.3v-1.5l1.1-0.3v1.8h2.5v1h-2.5v4.1
		c0,0.7,0.4,1.1,1.2,1.1c0.4,0,0.9-0.1,1.3-0.3L108.7,223.3z"/>
</g>
</svg>
